<?xml version="1.0" encoding="utf-8" ?>
<svg baseProfile="full" height="200mm" version="1.1" viewBox="0,0,200,200" width="200mm" xmlns="http://www.w3.org/2000/svg" xmlns:ev="http://www.w3.org/2001/xml-events" xmlns:xlink="http://www.w3.org/1999/xlink"><defs /><rect fill="#1a1a1a" height="200" width="200" x="0" y="0" /><text alignment-baseline="middle" fill="#e1ed5e" style="dominant-baseline: central; font-size:9.0px; font-family:Arial;" text-anchor="middle" x="100.0" y="100.0">2022</text><line stroke="#e1ed5e" stroke-width="0.3" x1="100.0" x2="100.0" y1="15.0" y2="10.0" /><path d="M 100.0 14.0 a86.0,86.0 0 0,1 42.46469731375804,11.215312516191453" fill="none" id="id25" stroke="none" /><text fill="#e1ed5e" style="font-size:6.75px; font-family:Arial;" text-anchor="middle"><textPath startOffset="22.20632615414155" xlink:href="#id25">January</textPath></text><path d="M 100.36148047927253 79.00311137660856 l 0.7369593219743449 -42.80688360988727 a63.81322685143787,63.81322685143787 0 0,0 1.0981143098274913,0.02836105287005841 l -1.4737002669967039 42.787855764874855" fill="#33ff56" stroke="none" /><path d="M 100.72285384407766 79.0124445844662 l 1.4668311627803126 -42.58841613184566 a63.61366896055015,63.61366896055015 0 0,0 1.0940314157358528,0.04711129411780089 l -2.1997034109054967 42.55685711120367" fill="#33ff54" stroke="none" /><path d="M 101.08401301168833 79.027996857942 l 0.7515958077611823 -14.540849115247607 a35.560260617538454,35.560260617538454 0 0,0 0.6110234087600959,0.0368586006489591 l -1.00178126536089 14.525757245218344" fill="#ffad10" stroke="none" /><path d="M 101.44485096284872 79.0497635885617 l 0.6305665621075475 -9.143170395412067 a30.16488838277847,30.16488838277847 0 0,0 0.517701033806824,0.040183563982021914 l -0.7878577852767126 9.130961569241581" fill="#ff6309" stroke="none" /><path d="M 101.80526077348638 79.07773832637324 l 1.1936371481716719 -13.8337846388694 a34.88518516535211,34.88518516535211 0 0,0 0.5978238846578281,0.05677058131014719 l -1.4315861599197441 13.811188513044074" fill="#ffa40f" stroke="none" /><path d="M 102.16513564639614 79.11191278185805 l 2.342658889475402 -22.60073787393775 a43.721826579720265,43.721826579720265 0 0,0 0.7479207567051916,0.08403761154353098 l -2.7313463496903188 22.557064308923618" fill="#e9ff1a" stroke="none" /><path d="M 102.52436894288641 79.15227682838746 l 4.618294795579919 -38.140594184723184 a59.419182338808575,59.419182338808575 0 0,0 1.0143286529795041,0.13168897058400308 l -5.274138177067269 38.05544689097505" fill="#3bff2e" stroke="none" /><path d="M 102.88285421437855 79.19881850522331 l 0.641388213734229 -4.627924844743594 a25.672158731176864,25.672158731176864 0 0,0 0.43719810960134137,0.06443163660134102 l -0.7209553037642262 4.6161987239812845" fill="#ff2303" stroke="none" /><path d="M 103.2404852339499 79.25152402106235 l 2.94838245371283 -18.87817351446929 a40.107024737927446,40.107024737927446 0 0,0 0.6811906834611597,0.11240229943809289 l -3.272902343312865 18.824624952091572" fill="#ffe815" stroke="none" /><path d="M 103.59715602781102 79.31037775812273 l 5.132031831122993 -29.517707627444178 a50.96052092829722,50.96052092829722 0 0,0 0.8629433272971533,0.15769737726861954 l -5.639370279523047 29.42499476882482" fill="#95ff23" stroke="none" /><path d="M 103.95276090670814 79.375362276772 l 5.769826830675884 -30.105688382643667 a51.65360296358053,51.65360296358053 0 0,0 0.8717986648733992,0.17487461071757923 l -6.2871919050164085 30.00190981584888" fill="#8dff24" stroke="none" /><path d="M 104.307194497241 79.44645832069477 l 5.898968345690878 -28.149342184506313 a49.76079437296351,49.76079437296351 0 0,0 0.8368279326053452,0.1828981737914163 l -6.382639002449751 28.043630512619025" fill="#a2ff22" stroke="none" /><path d="M 105.01212808612495 79.60689891045804 l 5.395263963829325 -21.951985569506718 a43.605276899061124,43.605276899061124 0 0,0 0.7273590906747298,0.18542002753871617 l -5.772331943189079 21.855862545799134" fill="#ebff1a" stroke="none" /><path d="M 105.71112130821622 79.79150937346287 l 10.215546818304446 -36.14715411939573 a58.5629358241381,58.5629358241381 0 0,0 0.9677100766576701,0.28250110773390064 l -10.836247112685543 35.965954682743124" fill="#44ff2d" stroke="none" /><path d="M 106.0581310904928 79.89281104454417 l 8.1887572574208 -27.17882578403017 a49.38563574098042,49.38563574098042 0 0,0 0.8118401826555613,0.2522426965865967 l -8.655382812787078 27.033842952561052" fill="#a7ff21" stroke="none" /><path d="M 106.40334571778207 80.00007090966166 l 7.880238078196116 -24.612789895326138 a46.84352101785901,46.84352101785901 0 0,0 0.7658183539085407,0.25247827079026924 l -8.302739254347074 24.47349790027663" fill="#c4ff1e" stroke="none" /><path d="M 106.74666289553966 80.11325718540242 l 7.141483328298728 -21.050531864947015 a43.22893780470669,43.22893780470669 0 0,0 0.7026102103798035,0.24512690628838948 l -7.502775542741805 20.924484105486417" fill="#efff19" stroke="none" /><path d="M 107.08798089147638 80.2323363322302 l 4.223663180210665 -11.77937052465114 a33.513708507748106,33.513708507748106 0 0,0 0.5413543930825776,0.1993853916499725 l -4.42579989906582 11.704921865194843" fill="#ff920d" stroke="none" /><path d="M 107.4271985657038 80.35727306442388 l 13.998849362509274 -37.02278497168154 a60.580985214286855,60.580985214286855 0 0,0 0.9722291380057583,0.37720980106032914 l -14.6340616655147 36.776332466730665" fill="#30ff2f" stroke="none" /><path d="M 108.43124777332544 80.76684994638697 l 1.8133029444726 -4.136461003321259 a25.516456265749788,25.516456265749788 0 0,0 0.4007515976097451,0.17980556021881136 l -1.8842366605491254 4.104635112585917" fill="#ff2103" stroke="none" /><path d="M 108.76106565485865 80.91482961587045 l 1.918927177582674 -4.180205192115187 a25.599608348658847,25.599608348658847 0 0,0 0.3988928397084711,0.18728553681215848 l -1.990598228590743 4.146554672663025" fill="#ff2203" stroke="none" /><path d="M 109.08828744355905 81.06846463323043 l 2.8769871539682796 -5.992964504406444 a27.647757413983612,27.647757413983612 0 0,0 0.42726150874109725,0.20965536676289678 l -2.979719929719809 5.942553977508716" fill="#ff4006" stroke="none" /><path d="M 109.41281617654863 81.2277094730956 l 8.508586729814406 -16.968955843776577 a39.982663421311905,39.982663421311905 0 0,0 0.6125715540036091,0.31378294236888915 l -8.79941877140677 16.819980376095184" fill="#ffe615" stroke="none" /><path d="M 109.73455568895987 81.39251694778311 l 12.244127545222288 -23.404498681464688 a47.41380733393718,47.41380733393718 0 0,0 0.7199108253037219,0.38455143078650716 l -12.645183417054321 23.190268524176425" fill="#bdff1f" stroke="none" /><path d="M 110.36928655335952 81.73862282372117 l 21.345215238101634 -37.59111336792406 a64.22857871594907,64.22857871594907 0 0,0 0.9567099662598446,0.5541881638131392 l -21.989121936826805 37.21812104672087" fill="#34ff5b" stroke="none" /><line stroke="#e1ed5e" stroke-width="0.3" x1="143.23703022742887" x2="145.7803849466894" y1="26.81831364943548" y2="22.513508569990506" /><path d="M 143.74570117128098 25.957352633546492 a86.0,86.0 0 0,1 28.547481713284135,27.462654790039103" fill="none" id="id26" stroke="none" /><text fill="#e1ed5e" style="font-size:6.75px; font-family:Arial;" text-anchor="middle"><textPath startOffset="19.985693538727396" xlink:href="#id26">February</textPath></text><path d="M 110.68208982089419 81.91981866633111 l 21.808664424984606 -36.91268413392242 a63.87381594834214,63.87381594834214 0 0,0 0.9417979234780749,0.5674227110466498 l -22.440824414680318 36.53181481341715" fill="#33ff57" stroke="none" /><path d="M 110.99172775467656 82.1063720568725 l 12.693694118185238 -20.664289076668116 a45.25165382835067,45.25165382835067 0 0,0 0.6602019074517618,0.41341837387925384 l -13.047515178009263 20.44272636146592" fill="#d7ff1c" stroke="none" /><path d="M 111.2981086023043 82.29822771554956 l 17.709336837045328 -27.746825511490428 a53.91666655621475,53.91666655621475 0 0,0 0.7780251345869995,0.5060491897124725 l -18.184328997416607 27.437877397618426" fill="#74ff27" stroke="none" /><path d="M 111.60114157652 82.49532879139004 l 20.698929886772255 -31.232095535438333 a58.46851331441189,58.46851331441189 0 0,0 0.8341377197155432,0.5632135118624821 l -21.23347230089434 30.87117011127718" fill="#45ff2d" stroke="none" /><path d="M 111.90073688211348 82.69761687909136 l 6.1334690422699065 -8.917400013194799 a31.82309870082547,31.82309870082547 0 0,0 0.4486585032033521,0.3143139533700244 l -6.28605868505691 8.810501217060839" fill="#ff7b0b" stroke="none" /><path d="M 112.19680574252982 82.90503203632743 l 10.012217359316264 -14.0330623128656 a38.238658135915415,38.238658135915415 0 0,0 0.5325273651521317,0.38690377810966137 l -10.252290040822183 13.858639299939263" fill="#ffd013" stroke="none" /><path d="M 112.48926042617603 83.11751280151076 l 2.9241786385506456 -3.952788775863675 a25.916844497922398,25.916844497922398 0 0,0 0.3563613586295706,0.2684039871740371 l -2.9917861509385992 3.9018681991837907" fill="#ff2703" stroke="none" /><path d="M 112.77801427241765 83.33499621200491 l 21.74363628617102 -28.357910184527306 a56.73453216398685,56.73453216398685 0 0,0 0.7698806983331642,0.6009040966943218 l -22.228549539663614 27.979427698609758" fill="#57ff2a" stroke="none" /><path d="M 113.06298171725822 83.55741782278167 l 2.839695070079297 -3.574369202885229 a25.565083053961565,25.565083053961565 0 0,0 0.3422027600897674,0.27670416671912323 l -2.9008012287335556 3.5249589389019764" fill="#ff2203" stroke="none" /><path d="M 113.34407831869373 83.78471172551755 l 26.189671639323073 -31.824833855384092 a62.21551832136004,62.21551832136004 0 0,0 0.8210743803308038,0.6876261806919662 l -26.733603556612994 31.36930651729831" fill="#31ff43" stroke="none" /><path d="M 114.16331599549186 84.49514656593476 l 3.039689594394555 -3.327606449022398 a25.506958787236243,25.506958787236243 0 0,0 0.3216210283442816,0.29891169432009473 l -3.0965185065336835 3.2747901686276633" fill="#ff2103" stroke="none" /><path d="M 114.42810811169701 84.74124197986012 l 19.940432323337852 -21.088435800679665 a50.02314534575818,50.02314534575818 0 0,0 0.6205651223705466,0.5969831560473637 l -20.300480689320814 20.74206955787" fill="#9fff22" stroke="none" /><path d="M 114.68862486808459 84.99185889309783 l 13.573690094026272 -13.86895356795039 a40.40600257236484,40.40600257236484 0 0,0 0.49288434844699747,0.4907677464166359 l -13.810410242640593 13.633249970883636" fill="#ffec16" stroke="none" /><path d="M 114.94478906791727 85.2469230424477 l 25.450212675238145 -25.12373674044684 a56.76192770276975,56.76192770276975 0 0,0 0.6804288411375065,0.7012417321759201 l -25.87890578007876 24.681930812720807" fill="#56ff2a" stroke="none" /><path d="M 115.19652480421416 85.50635884689758 l 18.72399876177786 -17.857959138729267 a46.87459824290192,46.87459824290192 0 0,0 0.551853926435775,0.5886792918194015 l -19.0286200101841 17.533010430031812" fill="#c4ff1e" stroke="none" /><path d="M 115.4437574822437 85.77008943001954 l 10.949396918718929 -10.088797310352083 a35.88869114640434,35.88869114640434 0 0,0 0.41469614936390436,0.4579178457725265 l -11.121436708698868 9.898826677310007" fill="#ffb110" stroke="none" /><path d="M 115.9244219780498 86.31012108654704 l 33.847276299360296 -29.09776660824049 a65.6353910532088,65.6353910532088 0 0,0 0.7291447672541066,0.8630774203303534 l -34.34313168010152 28.51083023828103" fill="#36ff6c" stroke="none" /><path d="M 116.15771136456269 86.58626213691792 l 30.84134150207025 -25.6037294466029 a61.08415281906506,61.08415281906506 0 0,0 0.6646581442567355,0.8147922947951465 l -31.277498138403395 25.069052982199654" fill="#30ff35" stroke="none" /><path d="M 116.38621287248628 86.86637796730983 l 15.466573990457247 -12.396527404594906 a40.82142282216797,40.82142282216797 0 0,0 0.4347402208822045,0.552075931959749 l -15.677668291933415 12.128459078682118" fill="#fff116" stroke="none" /><path d="M 116.60985879189232 87.15038557335679 l 32.723621501402384 -25.31544212414867 a62.37278107775891,62.37278107775891 0 0,0 0.6496394236590486,0.8548493316580195 l -33.15453686528554 24.748408016609616" fill="#32ff45" stroke="none" /><path d="M 116.82858285166822 87.43820079747576 l 12.910686423978197 -9.63726131037189 a37.11094750480821,37.11094750480821 0 0,0 0.377714141277222,0.5152016642184412 l -13.074663177769045 9.413597202481956" fill="#ffc112" stroke="none" /><path d="M 117.04232023915458 87.72973835380427 l 23.599956613922334 -16.991679444351277 a50.08049384929022,50.08049384929022 0 0,0 0.4976746219207682,0.7039254587908144 l -23.888943855646986 16.58292748522867" fill="#9fff22" stroke="none" /><path d="M 117.2510076193507 88.02491185347247 l 7.925171257098002 -5.501396003884383 a30.647471038872695,30.647471038872695 0 0,0 0.29709882345907274,0.4359558633569058 l -8.01869454622581 5.364162117257071" fill="#ff6a09" stroke="none" /><path d="M 117.45458315368197 88.32363383020206 l 38.793334677045294 -25.951074090311337 a67.6731299765301,67.6731299765301 0 0,0 0.6393607944382879,0.9737903539523035 l -39.2342921068415 25.27946567238136" fill="#38ff83" stroke="none" /><path d="M 117.65298651832404 88.62581576622439 l 23.42230369968283 -15.091474588908783 a48.863182084389706,48.863182084389706 0 0,0 0.4494770637291959,0.710964772669254 l -23.67860835965798 14.686062168525323" fill="#adff20" stroke="none" /><line stroke="#e1ed5e" stroke-width="0.3" x1="172.23445277983987" x2="176.4835382374775" y1="55.19839476539836" y2="52.563006222186495" /><path d="M 173.08426987136738 54.67131705675599 a86.0,86.0 0 0,1 12.851231095245387,41.99856678651699" fill="none" id="id27" stroke="none" /><text fill="#e1ed5e" style="font-size:6.75px; font-family:Arial;" text-anchor="middle"><textPath startOffset="22.20632615414155" xlink:href="#id27">March</textPath></text><path d="M 117.84615892207809 88.93136811851018 l 22.3110711838671 -13.837881579684142 a47.25396853782198,47.25396853782198 0 0,0 0.4227749598350749,0.6949308727780037 l -22.5459619419884 13.451782933699057" fill="#bfff1e" stroke="none" /><path d="M 118.03404312379186 89.2402003453031 l 16.54180892298595 -9.869475675301736 a40.26234649646689,40.26234649646689 0 0,0 0.34997627790731156,0.5982229054208896 l -16.709244875363588 9.58327335752695" fill="#ffea16" stroke="none" /><path d="M 118.21658344932153 89.55222093294921 l 3.379146934204764 -1.938046214971683 a24.895466228105633,24.895466228105633 0 0,0 0.21000198137005754,0.3735700922065487 l -3.412006556867255 1.8795926128303404" fill="#ff1802" stroke="none" /><path d="M 118.56541770881063 90.18545643968196 l 24.62786327374384 -13.01943434232597 a48.85744640171381,48.85744640171381 0 0,0 0.386649843421431,0.7468844293168235 l -24.84832255032539 12.593577190748803" fill="#adff20" stroke="none" /><path d="M 118.73160827565052 90.50648371742162 l 7.627074361092866 -3.865538589635956 a29.550710607756812,29.550710607756812 0 0,0 0.2260488461546495,0.45570068016021015 l -7.6924832202009235 3.7336783209767956" fill="#ff5b08" stroke="none" /><path d="M 118.89224826269711 90.83032412892265 l 7.6111131006639825 -3.6941839415165267 a29.46026226690742,29.46026226690742 0 0,0 0.2175034415122326,0.45811771811797264 l -7.673574736017971 3.5626238077580137" fill="#ff5a08" stroke="none" /><path d="M 119.04729006885535 91.15688171328212 l 8.16801419400348 -3.792178069638863 a30.005391184467904,30.005391184467904 0 0,0 0.21346361531275804,0.4703387806672011 l -8.232080126279584 3.651017280129599" fill="#ff6109" stroke="none" /><path d="M 119.196687751892 91.48605970444005 l 7.633261752938704 -3.3854348033814374 a29.350320580482116,29.350320580482116 0 0,0 0.20085303507194494,0.46359649729539787 l -7.69040549785333 3.253539161499437" fill="#ff5808" stroke="none" /><path d="M 119.34039704204932 91.81776055985345 l 27.202427841174327 -11.508387209728793 a50.53667307980615,50.53667307980615 0 0,0 0.33204594771120816,0.8040756000310106 l -27.396495475771733 11.03843703924448" fill="#9aff23" stroke="none" /><path d="M 119.47837535516314 92.15188598940014 l 8.46457386753039 -3.41049700256001 a30.125815062960086,30.125815062960086 0 0,0 0.1896584317330643,0.4826600217265947 l -8.522025849145155 3.2642879759376306" fill="#ff6309" stroke="none" /><path d="M 119.7369772167798 92.82701384747503 l 8.616834959582038 -3.131606079533155 a30.16824963436556,30.16824963436556 0 0,0 0.1731756928944456,0.4895910039022 l -8.669463733286292 2.98281744920434" fill="#ff6409" stroke="none" /><path d="M 119.85752413597 93.16781622104841 l 8.643714618784768 -2.9739582036501067 a30.14101907929588,30.14101907929588 0 0,0 0.16457384838613223,0.4920548593197304 l -8.693625760942671 2.824730241408062" fill="#ff6309" stroke="none" /><path d="M 119.97218684219823 93.5106431181261 l 22.376781813564687 -7.270657149533461 a44.52834077698513,44.52834077698513 0 0,0 0.23058156554274792,0.7310065748653961 l -22.49861886287564 6.884400408241646" fill="#e0ff1b" stroke="none" /><path d="M 120.08093135843002 93.85539295169968 l 14.193262456687817 -4.343026674065515 a35.842862926540434,35.842862926540434 0 0,0 0.17544928283247377,0.5915277612005326 l -14.265917636631993 4.098069526118452" fill="#ffb110" stroke="none" /><path d="M 120.18372546131832 94.20196356495316 l 4.237487502352721 -1.2172731430965462 a25.408860877539645,25.408860877539645 0 0,0 0.11713875608498125,0.4214104303165462 l -4.257813029004065 1.1441514093610483" fill="#ff1f03" stroke="none" /><path d="M 120.28053869075195 94.5502522615342 l 39.28634201609185 -10.556951016908718 a61.680042819283685,61.680042819283685 0 0,0 0.2667035303994169,1.027717497846063 l -39.462241878361574 9.879137093513803" fill="#31ff3c" stroke="none" /><line stroke="#e1ed5e" stroke-width="0.3" x1="184.98032266829074" x2="189.97916517819016" y1="98.17113171792111" y2="98.06355123074" /><path d="M 185.9800911702706 98.14961562048488 a86.0,86.0 0 0,1 -9.607161424134198,41.387399972396054" fill="none" id="id28" stroke="none" /><text fill="#e1ed5e" style="font-size:6.75px; font-family:Arial;" text-anchor="middle"><textPath startOffset="21.466115282336823" xlink:href="#id28">April</textPath></text><line stroke="#e1ed5e" stroke-width="0.3" x1="174.80103733775053" x2="179.2010983576182" y1="140.37084112569926" y2="142.7455964860345" /><path d="M 175.68104954172406 140.8457921977663 a86.0,86.0 0 0,1 -30.038265399797805,32.042727171017184" fill="none" id="id29" stroke="none" /><text fill="#e1ed5e" style="font-size:6.75px; font-family:Arial;" text-anchor="middle"><textPath startOffset="22.206326154141568" xlink:href="#id29">May</textPath></text><line stroke="#e1ed5e" stroke-width="0.3" x1="143.8653032363475" x2="146.44561519142675" y1="172.8068346515853" y2="177.08958963109032" /><path d="M 144.38136562736335 173.6633856474863 a86.0,86.0 0 0,1 -40.68145358897372,12.25698825130547" fill="none" id="id30" stroke="none" /><text fill="#e1ed5e" style="font-size:6.75px; font-family:Arial;" text-anchor="middle"><textPath startOffset="21.466115282336833" xlink:href="#id30">June</textPath></text><path d="M 110.8373102113329 117.98757091392108 l 3.7696146781150657 6.256738066780211 a28.304571586188825,28.304571586188825 0 0,0 -0.4194900987809101,0.24784214447057962 l -3.661356708305773 -6.3206987835445405" fill="#ff4906" stroke="none" /><path d="M 110.5260780823613 118.17145234162733 l 1.9086144955859126 3.2948926536271985 a24.807771906468027,24.807771906468027 0 0,0 -0.37135017565408857,0.21086232138064273 l -1.8516155530106249 -3.3272581408024697" fill="#ff1702" stroke="none" /><path d="M 110.21172684928248 118.3499491758327 l 12.618133960707345 22.67413928028218 a46.94867813111087,46.94867813111087 0 0,0 -0.7095447357969444,0.38690036371954106 l -12.225966413041752 -22.88798029576149" fill="#c3ff1e" stroke="none" /><path d="M 109.2508944713604 118.85261126421891 l 3.2709010557437335 6.665844722212213 a28.425111418498034,28.425111418498034 0 0,0 -0.4411135105700212,0.211761291497502 l -3.1556748771734795 -6.721160290209275" fill="#ff4b07" stroke="none" /><path d="M 108.92500713936063 119.00905698771935 l 1.5050579685342815 3.2055697263833025 a24.541310034345152,24.541310034345152 0 0,0 -0.3839336081941216,0.17624508876758907 l -1.4496563645727405 -3.231001885484966" fill="#ff1302" stroke="none" /><path d="M 108.2653958097858 119.30500536409082 l 4.26204456565081 9.95461017178018 a31.82863276465238,31.82863276465238 0 0,0 -0.5055122586755142,0.21130416512462302 l -4.090060847477835 -10.026499379924775" fill="#ff7b0b" stroke="none" /><path d="M 106.57524785965236 119.94407469862006 l 5.315160451276538 16.121971268321882 a37.97553793549443,37.97553793549443 0 0,0 -0.6225793866609519,0.19933025919980354 l -5.036859719524645 -16.21107437418139" fill="#ffcd13" stroke="none" /><path d="M 105.53697534728816 120.25689768951611 l 1.1564787074193141 4.2309509049504 a25.386158747790013,25.386158747790013 0 0,0 -0.42250976679319613,0.11158866954159592 l -1.0834784978146206 -4.25023092379558" fill="#ff1f03" stroke="none" /><path d="M 104.83641907484287 120.43548508189849 l 1.0125338011218785 4.278293313202267 a25.396477950838097,25.396477950838097 0 0,0 -0.426273654955185,0.09701849603993086 l -0.9387399967738315 -4.295088542819882" fill="#ff1f03" stroke="none" /><path d="M 104.48393922423573 120.51570834832081 l 0.9668166707818913 4.423549885968086 a25.52797173893014,25.52797173893014 0 0,0 -0.4300959225534768,0.09013078231540707 l -0.8905292867990364 -4.4395366490100345" fill="#ff2103" stroke="none" /><path d="M 104.13013068566511 120.58985236759428 l 1.818880829799838 9.067627784711393 a30.248253949534657,30.248253949534657 0 0,0 -0.5113861787973406,0.09800837827587391 l -1.662527036430793 -9.097593361335734" fill="#ff6509" stroke="none" /><path d="M 103.7750983002368 120.6578951692458 l 2.2167196652680654 12.130217234830887 a33.331099555131914,33.331099555131914 0 0,0 -0.5652812089775109,0.09828138399579174 l -2.0075894848185047 -12.166577197347685" fill="#ff8f0d" stroke="none" /><path d="M 103.41894727170886 120.7198165907248 l 0.5818405702950911 3.526123377600776 a24.573805328120716,24.573805328120716 0 0,0 -0.41794675989860264,0.06527468838691831 l -0.5210579467879712 -3.5356163733348005" fill="#ff1302" stroke="none" /><path d="M 103.06178313531738 120.77559828337769 l 0.5072476465973034 3.4419071730898163 a24.47908395459863,24.47908395459863 0 0,0 -0.4173933370513802,0.05784691321857226 l -0.4479257183590926 -3.4501286518009913" fill="#ff1202" stroke="none" /><path d="M 102.70371172650421 120.8252237178851 l 1.5671127450451592 12.070618767079445 a33.17192177825069,33.17192177825069 0 0,0 -0.5668806214713745,0.06864134866847146 l -1.3591047005224044 -12.095805644473268" fill="#ff8d0d" stroke="none" /><path d="M 102.34483914955558 120.86867818915974 l 0.5091685304779483 4.531515182440354 a25.560030969315505,25.560030969315505 0 0,0 -0.43764542696748365,0.045363737929369645 l -0.43109050690486195 -4.539608288825482" fill="#ff2203" stroke="none" /><path d="M 101.98527174616119 120.90594882070398 l 0.7605082631204012 8.008549387387836 a29.04457805658597,29.04457805658597 0 0,0 -0.49812237266089365,0.04298009430281591 l -0.6225415727179658 -8.020453733969315" fill="#ff5407" stroke="none" /><path d="M 101.62511606390274 120.93702456842531 l 0.6488670718139325 8.359615738204665 a29.384760209291827,29.384760209291827 0 0,0 -0.504630418907245,0.034802268209384694 l -0.5048738921277572 -8.369546350930335" fill="#ff5908" stroke="none" /><path d="M 101.26447882468166 120.96189622390904 l 0.27095958789394 4.491832248543857 a25.49999733859146,25.49999733859146 0 0,0 -0.4383715854598111,0.02265880370959305 l -0.19359993402064932 -4.495830859015652" fill="#ff2103" stroke="none" /><path d="M 100.90346689309514 120.98055641714683 l 0.6579664503503662 15.279477684980284 a36.293637833282084,36.293637833282084 0 0,0 -0.6243882244216993,0.021505192924279895 l -0.3948578742540146 -15.288539676330657" fill="#ffb710" stroke="none" /><line stroke="#e1ed5e" stroke-width="0.3" x1="102.19456741930631" x2="102.32365962044197" y1="184.97166512339345" y2="189.96999836594603" /><path d="M 102.22038585953345 185.97133177190398 a86.0,86.0 0 0,1 -42.740103519485714,-10.115201625700543" fill="none" id="id31" stroke="none" /><text fill="#e1ed5e" style="font-size:6.75px; font-family:Arial;" text-anchor="middle"><textPath startOffset="22.20632615414155" xlink:href="#id31">July</textPath></text><path d="M 100.54218724476979 120.99299961872073 l 0.3320074062739603 12.85502641487076 a33.859313086041794,33.859313086041794 0 0,0 -0.5827676486590568,0.010032873570949605 l -0.11068006772223558 -12.85883676572087" fill="#ff960d" stroke="none" /><path d="M 99.45781275523022 120.99299961872073 l -0.07146369968961193 2.767009801149816 a23.76793249557002,23.76793249557002 0 0,0 -0.4088985854009695,-0.01408329404939874 l 0.1190826367652245 -2.765369708674324" fill="#ff0701" stroke="none" /><path d="M 99.09653310690486 120.98055641714683 l -0.4020050226974888 9.335471087143539 a30.344122669205866,30.344122669205866 0 0,0 -0.5216471589099071,-0.026963199649468167 l 0.5626402500208847 -9.327168080731868" fill="#ff6609" stroke="none" /><path d="M 98.73552117531835 120.96189622390904 l -0.5527868169606852 9.163822805804754 a30.180480471151434,30.180480471151434 0 0,0 -0.5182954835943557,-0.03574469107673629 l 0.7104450613339709 -9.152949770211732" fill="#ff6409" stroke="none" /><path d="M 98.37488393609728 120.93702456842531 l -0.3423056133956648 4.410061039187384 a25.42332584175309,25.42332584175309 0 0,0 -0.4360169173245561,-0.03762137429026934 l 0.41816684846176255 -4.403515412618451" fill="#ff2003" stroke="none" /><path d="M 98.01472825383883 120.90594882070398 l -0.7829479345230517 8.244850852315475 a29.281942588855657,29.281942588855657 0 0,0 -0.5013729553818532,-0.051969356815657466 l 0.9247534865104983 -8.230152127044057" fill="#ff5708" stroke="none" /><path d="M 97.2962882734958 120.8252237178851 l -0.7177504375965835 5.528441989592261 a26.574839596163905,26.574839596163905 0 0,0 -0.4531281072943998,-0.0627994267582839 l 0.8128071360778143 -5.515267997341373" fill="#ff3004" stroke="none" /><path d="M 96.93821686468263 120.77559828337769 l -2.9237323021235033 19.83886026949353 a41.05314407685162,41.05314407685162 0 0,0 -0.6982243214458966,-0.10904827930142488 l 3.264792487177917 -19.785593682845" fill="#fff417" stroke="none" /><path d="M 96.22490169976321 120.6578951692458 l -3.466146973872074 18.9672679047739 a40.28137512253596,40.28137512253596 0 0,0 -0.6810091760993486,-0.13051702941493643 l 3.7921237645431174 -18.904793677010495" fill="#ffea16" stroke="none" /><path d="M 95.86986931433489 120.58985236759428 l -1.5520720461222446 7.737511649314982 a28.891642044570897,28.891642044570897 0 0,0 -0.4867671261283292,-0.10200678402831131 l 1.6850306336799605 -7.709648884560129" fill="#ff5207" stroke="none" /><path d="M 95.51606077576429 120.51570834832081 l -4.542993848209051 20.785905463283548 a42.276575359616174,42.276575359616174 0 0,0 -0.7096019508066139,-0.1615030937379758 l 4.900115948408527 -20.704625635967886" fill="#fbff18" stroke="none" /><path d="M 95.16358092515715 120.4354850818985 l -3.2536072867702157 13.747576903953348 a35.127343384608295,35.127343384608295 0 0,0 -0.5872065957554312,-0.1443210945711899 l 3.489767167268857 -13.689534551068128" fill="#ffa70f" stroke="none" /><path d="M 94.81253420990036 120.34920634021253 l -2.7806126812304477 10.907688550073917 a32.25653038855371,32.25653038855371 0 0,0 -0.5368555072638642,-0.14178841887216231 l 2.9679586313058013 -10.858208781898174" fill="#ff800b" stroke="none" /><path d="M 94.46302465271185 120.25689768951611 l -5.661386820955483 20.712054220909266 a42.47185345484581,42.47185345484581 0 0,0 -0.7035540023699632,-0.19883138868073244 l 6.01707199143006 -20.611534038890014" fill="#f9ff18" stroke="none" /><path d="M 94.11515582081647 120.15858648285463 l -8.09566839628622 27.731784654609296 a49.889301253444174,49.889301253444174 0 0,0 -0.8222826510241257,-0.24774701746612798 l 8.571826021750592 -27.58832226803744" fill="#a1ff22" stroke="none" /><path d="M 93.76903079525671 120.05430185196036 l -7.542310586955498 24.274838825539252 a46.41956429595143,46.41956429595143 0 0,0 -0.7610126265368937,-0.24365221103044993 l 7.959044558583332 -24.141413767849095" fill="#c9ff1d" stroke="none" /><path d="M 93.42475214034765 119.94407469862007 l -6.657060965100121 20.19223061930998 a42.26129436503007,42.26129436503007 0 0,0 -0.6889200088761551,-0.23371907130351313 l 7.003650706913502 -20.074648561108344" fill="#fbff18" stroke="none" /><path d="M 93.08242187328487 119.8279376855182 l -5.671642886391881 16.25669846670629 a38.217658902074064,38.217658902074064 0 0,0 -0.6192724649000477,-0.22204907325420015 l 5.9506349119216555 -16.15666185241213" fill="#ffd013" stroke="none" /><path d="M 92.7421414339146 119.70592522655815 l -5.5469607869642825 15.060639926678082 a37.049661958221094,37.049661958221094 0 0,0 -0.5965520961352114,-0.22556495782458424 l 5.805383103859777 -14.962926718746864" fill="#ffc111" stroke="none" /><path d="M 92.40401165467489 119.57807347666478 l -14.455023043971805 37.25670582893053 a60.96260527574775,60.96260527574775 0 0,0 -0.9750502029382427,-0.3879925984919553 l 15.094194322951905 -37.002366386032506" fill="#30ff34" stroke="none" /><path d="M 92.06813273071674 119.44442032107085 l -17.09819531731119 41.9150352867171 a66.26829427088745,66.26829427088745 0 0,0 -1.052493689036275,-0.43994244737693006 l 17.81716046584493 -41.61450779632019" fill="#37ff73" stroke="none" /><path d="M 91.7346041902142 119.30500536409082 l -10.4284094898781 24.35703090016323 a47.49559734673076,47.49559734673076 0 0,0 -0.7488004917277665,-0.32825213035545714 l 10.84613065626361 -24.173914216513325" fill="#bcff1f" stroke="none" /><path d="M 91.40352486487194 119.15986991738527 l -7.001252651707353 15.60442948497674 a38.10309206677701,38.10309206677701 0 0,0 -0.5960992954360377,-0.27363994971053 l 7.26881994291081 -15.481602464932136" fill="#ffce13" stroke="none" /><path d="M 91.07499286063937 119.00905698771935 l -13.97607526159347 29.767148301835086 a53.88485666292569,53.88485666292569 0 0,0 -0.8362091510985826,-0.4014312088737517 l 14.486397080692296 -29.522162816461773" fill="#75ff27" stroke="none" /><path d="M 90.7491055286396 118.85261126421891 l -3.9504457811711964 8.050704595470547 a29.967712437043456,29.967712437043456 0 0,0 -0.46114043665320625,-0.23122538805634815 l 4.088440125507163 -7.981511366504896" fill="#ff6108" stroke="none" /><path d="M 90.42595943632237 118.69057910512821 l -19.122975052101467 37.33214577058382 a62.94493154934711,62.94493154934711 0 0,0 -0.9600873435763279,-0.5022723216290059 l 19.76275329820429 -36.9974440300101" fill="#32ff4c" stroke="none" /><path d="M 90.10565033884886 118.52300852407294 l -11.673184304309302 21.853128277926622 a45.77544040645674,45.77544040645674 0 0,0 -0.6918133600798025,-0.3772318039119563 l 12.047620476257746 -21.648955822254898" fill="#d1ff1d" stroke="none" /><line stroke="#e1ed5e" stroke-width="0.3" x1="58.666819895761336" x2="56.23545636021788" y1="174.27360380694188" y2="178.64263932499728" /><path d="M 58.180547188652646 175.14741091055294 a86.0,86.0 0 0,1 -31.652253787137756,-30.449443065178592" fill="none" id="id32" stroke="none" /><text fill="#e1ed5e" style="font-size:6.75px; font-family:Arial;" text-anchor="middle"><textPath startOffset="22.20632615414155" xlink:href="#id32">August</textPath></text><path d="M 89.7882731507175 118.34994917583269 l -16.65778375026962 29.933182674283586 a55.25605325315188,55.25605325315188 0 0,0 -0.8271337369140825,-0.4696681226843226 l 17.17056625410491 -29.64201138580463" fill="#66ff29" stroke="none" /><path d="M 89.4739219176387 118.17145234162733 l -14.75330215226136 25.46902320539366 a50.43350246628492,50.43350246628492 0 0,0 -0.7474536354322475,-0.4416087827489132 l 15.18952365872199 -25.211295850350997" fill="#9bff22" stroke="none" /><path d="M 89.1626897886671 117.98757091392108 l -13.008293421466655 21.590929467261773 a46.20682314372927,46.20682314372927 0 0,0 -0.6777458396818001,-0.41632685000071407 l 13.378018461080766 -21.36381415043268" fill="#cbff1d" stroke="none" /><path d="M 88.8546689885994 117.79835938074946 l -18.070863497352722 28.857978512917434 a55.049067995937264,55.049067995937264 0 0,0 -0.7987834666056371,-0.5098214015193857 l 18.56492876600528 -28.542642682574243" fill="#68ff28" stroke="none" /><path d="M 88.54995079064634 117.60387380957326 l -11.176880271907782 17.18389033041369 a41.4989936216451,41.4989936216451 0 0,0 -0.5954617502395531,-0.39463957852196574 l 11.471016720887297 -16.988952730800403" fill="#fff917" stroke="none" /><path d="M 88.24862548938628 117.40417183066458 l -24.352468385480066 36.066805963755066 a64.51846974438513,64.51846974438513 0 0,0 -0.9150658108586411,-0.6293906087241116 l 24.969691080961596 -35.64227456566585" fill="#34ff5f" stroke="none" /><path d="M 87.65650970185807 116.9893568818739 l -14.569380002266167 20.053031227593422 a45.78690975223152,45.78690975223152 0 0,0 -0.6336363872422519,-0.4687490511752348 l 14.912401359926982 -19.799272227678422" fill="#d0ff1d" stroke="none" /><path d="M 87.36589467227662 116.77436683061367 l -12.978111088813064 17.23110505454636 a42.57179521584575,42.57179521584575 0 0,0 -0.5815535725659319,-0.44591048072704714 l 13.272793389872481 -17.005155231991946" fill="#f7ff18" stroke="none" /><path d="M 87.07902340077011 116.55440617244103 l -5.403656988238051 6.923186642499901 a29.782369961088122,29.782369961088122 0 0,0 -0.40141317460026765,-0.3189069030857645 l 5.522027655555677 -6.829145825409006" fill="#ff5e08" stroke="none" /><path d="M 86.79598089348748 116.32954008644616 l -7.683926242302186 9.502787036492702 a33.22070717913141,33.22070717913141 0 0,0 -0.4415662725983564,-0.36337898066965635 l 7.846362643445231 -9.369112936965866" fill="#ff8e0d" stroke="none" /><path d="M 86.51685102203217 116.09983520530335 l -9.88506877679038 11.803472509238805 a36.395991296380764,36.395991296380764 0 0,0 -0.476847319992158,-0.40637963107900144 l 10.086781573359595 -11.631568487936851" fill="#ffb811" stroke="none" /><path d="M 86.24171649860922 115.8653595955263 l -28.242790343899532 32.56816337166833 a64.10847331805132,64.10847331805132 0 0,0 -0.8274805683972283,-0.7301553920945983 l 28.799213265203345 -32.07718483780144" fill="#34ff5a" stroke="none" /><path d="M 85.70375840098266 115.38237550388516 l -2.5684332014297064 2.763565772682053 a24.772816572555072,24.772816572555072 0 0,0 -0.30985386641997714,-0.29298617080328887 l 2.6156229022405006 -2.7189449651328332" fill="#ff1602" stroke="none" /><path d="M 85.44109423537348 115.13401014063109 l -11.888401003428992 12.358015379076718 a38.14802095076362,38.14802095076362 0 0,0 -0.4693115728285229,-0.4593201510051542 l 12.09936252863331 -12.151545125148994" fill="#ffcf13" stroke="none" /><path d="M 85.18274418774928 114.88116024355367 l -6.355465042565292 6.382875136874053 a30.007387574663056,30.007387574663056 0 0,0 -0.36288844724656133,-0.36760408116135995 l 6.464394114867387 -6.272530561732028" fill="#ff6109" stroke="none" /><path d="M 84.9287848128048 114.62390073753433 l -9.727968014459641 9.439241418451402 a34.554801372434724,34.554801372434724 0 0,0 -0.41053316956304153,-0.43044238699686577 l 9.88900773540164 -9.270391914872036" fill="#ffa00e" stroke="none" /><path d="M 84.67929136418377 114.36230785411682 l -24.381743623696117 22.856521605341353 a54.419904279143026,54.419904279143026 0 0,0 -0.6347786204621277,-0.6889268222114827 l 24.771568652153977 -22.433443528328525" fill="#6fff27" stroke="none" /><path d="M 84.43433777217949 114.09645910891817 l -19.277825987578538 17.45824120846229 a47.008167196098405,47.008167196098405 0 0,0 -0.5379998561825494,-0.6044485417184164 l 19.575484693409425 -17.123818497003008" fill="#c2ff1e" stroke="none" /><path d="M 84.19399662182784 113.82643327865904 l -10.32451117468251 9.031452257479227 a34.71723955011615,34.71723955011615 0 0,0 -0.38958940700049893,-0.4531804959324708 l 10.478443091253787 -8.852394662385226" fill="#ffa20e" stroke="none" /><path d="M 83.95833913139862 113.55231037782056 l -19.64693813787295 16.598119471497625 a46.71963740381103,46.71963740381103 0 0,0 -0.5137024361935011,-0.6187876769331858 l 19.92973657395999 -16.25747053745068" fill="#c5ff1e" stroke="none" /><path d="M 83.72743513129214 113.27417163493432 l -22.624373864204937 18.45559223327441 a50.197109059429465,50.197109059429465 0 0,0 -0.5404127249983652,-0.6742479666905543 l 22.93870450125816 -18.063416433005596" fill="#9dff22" stroke="none" /><path d="M 83.50135304334701 112.99209946851258 l -6.5809021977811115 5.182227134792285 a29.37638059148089,29.37638059148089 0 0,0 -0.3094216724591914,-0.3999692221147014 l 6.669130687458371 -5.068179918564331" fill="#ff5808" stroke="none" /><path d="M 83.28015986056508 112.70617746262583 l -25.625563635854373 19.47404738452131 a53.185525212272104,53.185525212272104 0 0,0 -0.547655742955159,-0.733674364310867 l 25.95698064550462 -19.030060140701135" fill="#7cff26" stroke="none" /><path d="M 83.06392112726016 112.41649034213515 l -19.748252666676894 14.478203033437477 a45.48697299513252,45.48697299513252 0 0,0 -0.4575127562017632,-0.6354452031677843 l 19.994545215254266 -14.136124224818555" fill="#d4ff1c" stroke="none" /><path d="M 82.85270091963577 112.12312394758628 l -17.288433503345978 12.22290584880932 a42.17284488179311,42.17284488179311 0 0,0 -0.4139748564916608,-0.596361656480009 l 17.49626926699977 -11.923502930142298" fill="#fcff18" stroke="none" /><path d="M 82.6465618267979 111.8261652097733 l -23.909628862636968 16.294132506292463 a49.93387472292053,49.93387472292053 0 0,0 -0.477931131148412,-0.7144421945194601 l 24.18656309919611 -15.880153397567181" fill="#a0ff22" stroke="none" /><path d="M 82.44556493220864 111.52570212397912 l -23.570739374188157 15.475822481310933 a49.197177804151835,49.197177804151835 0 0,0 -0.45869372141084214,-0.7119028418812235 l 23.833637958976045 -15.067798039508261" fill="#a9ff21" stroke="none" /><path d="M 82.24976979558568 111.22182372390057 l -11.108110610438727 7.022627748508454 a34.14181957827235,34.14181957827235 0 0,0 -0.3097725664637028,-0.4994520108719292 l 11.227347816570386 -6.830379406271261" fill="#ff9a0e" stroke="none" /><path d="M 82.05923443525364 110.91462005526583 l -28.424651817450734 17.292699894609104 a54.27158398075329,54.27158398075329 0 0,0 -0.4786731075897615,-0.8022836615461488 l 28.718105800738726 -16.800854139176842" fill="#71ff27" stroke="none" /><line stroke="#e1ed5e" stroke-width="0.3" x1="26.63291911575756" x2="22.317208475507996" y1="142.92168965132927" y2="145.44649492493687" /><path d="M 25.769776987707644 143.4266507060508 a86.0,86.0 0 0,1 -11.730757126820373,-40.83630448921669" fill="none" id="id33" stroke="none" /><text fill="#e1ed5e" style="font-size:6.75px; font-family:Arial;" text-anchor="middle"><textPath startOffset="21.46611528233685" xlink:href="#id33">September</textPath></text><path d="M 81.87401531095188 110.60418214915194 l -31.338976669660614 18.33413316154334 a57.308014232215115,57.308014232215115 0 0,0 -0.49079676019690693,-0.8557455207853503 l 31.649925426009897 -17.79196779489968" fill="#51ff2b" stroke="none" /><path d="M 81.69416730710424 110.29060199501025 l -22.88631424945295 12.86551423390053 a47.25461552617769,47.25461552617769 0 0,0 -0.3924914147649536,-0.7124859246363737 l 23.104382073669424 -12.469657790866334" fill="#bfff1e" stroke="none" /><path d="M 81.51974371655577 109.97397251340807 l -30.53557606563606 16.480344844166478 a55.69903704489349,55.69903704489349 0 0,0 -0.4481053620487575,-0.8476464720814088 l 30.814733935909704 -15.952283356998942" fill="#61ff29" stroke="none" /><path d="M 81.18737489456691 109.33194174019688 l -19.53051693735996 9.688049657819182 a42.80136229717938,42.80136229717938 0 0,0 -0.32171693576491983,-0.6628321770844668 l 19.6943871297396 -9.35042852476943" fill="#f5ff19" stroke="none" /><path d="M 81.02952815118164 109.00673069616217 l -28.722864763918654 13.636935855499802 a52.79573839012669,52.79573839012669 0 0,0 -0.3827072145553003,-0.8243172929199706 l 28.953346595313782 -13.140498495301005" fill="#81ff25" stroke="none" /><path d="M 80.87730276802145 108.67885076344099 l -25.937078323989063 11.771562833570565 a49.4833587122278,49.4833587122278 0 0,0 -0.3453441607960513,-0.7786599143992536 l 26.135863569516395 -11.323354582678617" fill="#a6ff21" stroke="none" /><path d="M 80.73074385275274 108.34839909993369 l -32.71818202833737 14.175141962387517 a56.656893932215375,56.656893932215375 0 0,0 -0.38000323424019494,-0.898215394603092 l 32.957336243769866 -13.609852042118266" fill="#57ff2a" stroke="none" /><path d="M 80.58989483394504 108.01547362559985 l -24.514606896050537 10.1233962070891 a47.52261491696463,47.52261491696463 0 0,0 -0.30572290661594226,-0.7587791820676746 l 24.685232416923867 -9.699917657178618" fill="#bcff1f" stroke="none" /><path d="M 80.45479744820244 107.68017299344265 l -2.1280281540180055 0.8361962130840946 a23.286422518055108,23.286422518055108 0 0,0 -0.14338417330414513,-0.3743308311838609 l 2.1421066069156596 -0.7994418150670759" fill="#ff0000" stroke="none" /><path d="M 80.32549172779594 107.34259656027581 l -8.134028317295915 3.0356483383191706 a29.682026117244277,29.682026117244277 0 0,0 -0.17452429093756985,-0.48021589345979576 l 8.185076869238708 -2.8951846478532577" fill="#ff5d08" stroke="none" /><path d="M 80.0844068197444 106.66101706037122 l -24.857254596994668 8.313816989831055 a47.21073556846919,47.21073556846919 0 0,0 -0.251133571343847,-0.7729096581569881 l 24.996680419354764 -7.8847084316962635" fill="#c0ff1e" stroke="none" /><path d="M 79.97269907076064 106.31721596034903 l -24.858025220359128 7.840972391619001 a47.06534607294025,47.06534607294025 0 0,0 -0.23705969320241968,-0.7747247935675641 l 24.989311686067676 -7.4119206254993895" fill="#c1ff1e" stroke="none" /><path d="M 79.86692584326677 105.97154293290107 l -28.33889637724701 8.405419613038564 a50.55916316054291,50.55916316054291 0 0,0 -0.24029413125233412,-0.8364953945178123 l 28.479383145385448 -7.916366743016155" fill="#99ff23" stroke="none" /><path d="M 79.76711848015287 105.62410040840567 l -23.5944066289817 6.558497949388879 a45.48897546909372,45.48897546909372 0 0,0 -0.20320991876178543,-0.7562197036579099 l 23.70380462408526 -6.15138731255543" fill="#d4ff1c" stroke="none" /><path d="M 79.67330655649465 105.27499134158121 l -4.440417449482188 1.152335162830366 a25.587502964921242,25.587502964921242 0 0,0 -0.10696634551246328,-0.4272773785302178 l 4.45959510928971 -1.0757299449027564" fill="#ff2203" stroke="none" /><path d="M 79.50377843672027 104.57218783832718 l -4.5555649301353665 1.016231138308487 a25.667536562164994,25.667536562164994 0 0,0 -0.09248375369294179,-0.4320533078264606 l 4.572382722552749 -0.9376640110658625" fill="#ff2303" stroke="none" /><path d="M 79.4281124754447 104.21870165774334 l -36.609547126358606 7.507563754995821 a58.37141226034144,58.37141226034144 0 0,0 -0.19337633634556947,-0.9860217729054003 l 36.73335339567984 -6.8762782550224655" fill="#46ff2c" stroke="none" /><path d="M 79.35854240842038 103.8639653848113 l -20.401876560849473 3.8191171561679678 a41.75625744339946,41.75625744339946 0 0,0 -0.1261706233040204,-0.7076318601744069 l 20.464593626492682 -3.4673665452603473" fill="#fffd17" stroke="none" /><path d="M 79.29508885075956 103.50808413554451 l -37.74739427687938 6.395634063163901 a59.28537461961276,59.28537461961276 0 0,0 -0.16181588882046966,-1.0076276941504088 l 37.85189192006114 -5.7449271393202785" fill="#3dff2e" stroke="none" /><path d="M 79.23777060512086 103.15116336523772 l -8.70834125032494 1.3216984264117921 a29.80806982615887,29.80806982615887 0 0,0 -0.07262658000089996,-0.5079501313721593 l 8.72980188134244 -1.1716028230592321" fill="#ff5e08" stroke="none" /><path d="M 79.18660465613746 102.79330883721812 l -15.431922436183845 2.0710760836514885 a36.57027893843484,36.57027893843484 0 0,0 -0.07836225517387357,-0.6246242750463662 l 15.465286200604567 -1.805134054317714" fill="#ffba11" stroke="none" /><path d="M 79.1416061653843 102.43462659150553 l -42.06374337513502 4.909750432912717 a63.34931116373325,63.34931116373325 0 0,0 -0.117098783850945,-1.084189306586246 l 42.142024460487015 -4.184964804441689" fill="#33ff51" stroke="none" /><path d="M 79.10278846688536 102.07522291339032 l -18.51472309256576 1.8386270118328352 a39.605792659358244,39.605792659358244 0 0,0 -0.06153118929895279,-0.678991546602645 l 18.543628878141785 -1.519654076681624" fill="#ffe215" stroke="none" /><path d="M 79.07016306316243 101.71520430193888 l -20.31117511211427 1.664504842291246 a41.379264236104824,41.379264236104824 0 0,0 -0.052065836240746774,-0.7103969690054589 l 20.33681750701935 -1.3146347367890265" fill="#fff817" stroke="none" /><path d="M 79.04373962182676 101.35467743843564 l -17.948528708034228 1.1602483675576414 a38.98599063319975,38.98599063319975 0 0,0 -0.037526149283879914,-0.6700546041049281 l 17.965841208205642 -0.8511220471172757" fill="#ffda14" stroke="none" /><path d="M 79.0235259727143 100.99374915477108 l -23.836562867074765 1.1292443225201243 a44.86329654628529,44.86329654628529 0 0,0 -0.02990430785295622,-0.7716973088798392 l 23.85246930777892 -0.7187697666262883" fill="#dbff1b" stroke="none" /><path d="M 79.0095281055655 100.63252640178507 l -28.872871515067025 0.8700544523475164 a49.885977640987306,49.885977640987306 0 0,0 -0.018476666999462807,-0.8585381127961303 l 28.883570244751496 -0.3729265237612573" fill="#a1ff22" stroke="none" /><line stroke="#e1ed5e" stroke-width="0.3" x1="15.007084014347285" x2="10.007500721073583" y1="101.09737516637583" y2="101.16192664675087" /><path d="M 14.007167355692545 101.11028546245083 a86.0,86.0 0 0,1 10.666146001902534,-42.60595125391555" fill="none" id="id34" stroke="none" /><text fill="#e1ed5e" style="font-size:6.75px; font-family:Arial;" text-anchor="middle"><textPath startOffset="22.20632615414155" xlink:href="#id34">October</textPath></text><path d="M 79.00175016825051 100.2711162175752 l -62.994749495248485 0.8133486527256131 a84.0,84.0 0 0,0 -0.006222810841987947,-1.4459620871852985 l 62.99941660337998 0.27112291266336075" fill="#4dd2ff" stroke="none" /><path d="M 79.00486145842228 99.54816195383935 l -4.551522494966622 -0.09795367756727433 a25.552576407391328,25.552576407391328 0 0,0 0.013248774255673912,-0.4396623174378226 l 4.549162026255303 0.17628614243009133" fill="#ff2103" stroke="none" /><path d="M 79.01574976396665 99.18683210126434 l -15.016939458178518 -0.5819265862393685 a36.028210447101515,36.028210447101515 0 0,0 0.029348222978765222,-0.6194946019379632 l 15.004697626966253 0.8403322948003409" fill="#ffb310" stroke="none" /><path d="M 79.03285615573316 98.82574320788736 l -4.913410620703573 -0.2751736639312076 a25.921110085434382,25.921110085434382 0 0,0 0.028784046081041657,-0.44527645275334726 l 4.907945983618117 0.3597091809375667" fill="#ff2703" stroke="none" /><path d="M 79.05617556472873 98.46500227214037 l -55.38303000086085 -4.059087941461834 a76.5315784666056,76.5315784666056 0 0,0 0.10760163611119963,-1.3130125055066129 l 55.30495388093016 5.0118143641762245" fill="#44ffe3" stroke="none" /><path d="M 79.08570108090925 98.10471618934814 l -4.656252379173757 -0.4219562791321556 a25.675332428829027,25.675332428829027 0 0,0 0.04367603206771703,-0.4398116824737072 l 4.6482992214238115 0.5020434923102932" fill="#ff2303" stroke="none" /><path d="M 79.12142395522702 97.74499172005258 l -4.484995414489298 -0.4844057264016139 a25.51107889265536,25.51107889265536 0 0,0 0.05091239575660857,-0.43618631516649325 l 4.4759926657291 0.5615357798929689" fill="#ff2103" stroke="none" /><path d="M 79.16333360222342 97.38593545837743 l -10.754799638018183 -1.3492436769539313 a31.83910391839271,31.83910391839271 0 0,0 0.0729024525147486,-0.5432079494789209 l 10.729981186445599 1.5341699684975116" fill="#ff7b0b" stroke="none" /><path d="M 79.21141760316559 97.0276538004421 l -20.46520507749807 -2.9261097930630102 a41.67333396878965,41.67333396878965 0 0,0 0.10764441754964629,-0.7092422166679143 l 20.411804766509118 3.277951122123017" fill="#fffc17" stroke="none" /><path d="M 79.26566170972629 96.67025291283419 l -3.377156791479493 -0.5423408180142425 a24.42042710156501,24.42042710156501 0 0,0 0.07022400635926698,-0.41446606068548014 l 3.3673209236000026 0.6003926670155506" fill="#ff1101" stroke="none" /><path d="M 79.32604984820605 96.31383870115002 l -23.14754733950884 -4.127203197246339 a44.51260840626074,44.51260840626074 0 0,0 0.14098685357267815,-0.7531574093365816 l 23.0730747620263 4.5250386840454935" fill="#e0ff1b" stroke="none" /><path d="M 79.3925641242962 95.95851677861259 l -4.495979841697068 -0.8817412900620831 a25.581626615029506,25.581626615029506 0 0,0 0.08846455887729318,-0.4313846066342935 l 4.48013598690478 0.9590015528597792" fill="#ff2203" stroke="none" /><path d="M 79.46518482838121 95.60439243477599 l -29.10899894487347 -6.230966040299491 a50.768418791867504,50.768418791867504 0 0,0 0.19027426295005745,-0.8529622117714734 l 28.997430294921376 6.731106421620924" fill="#97ff23" stroke="none" /><path d="M 79.54389044137918 95.25157060432595 l -13.267954460408106 -3.079859579345844 a34.62072503914354,34.62072503914354 0 0,0 0.13974771021469007,-0.5793444794959213 l 13.2129739499326 3.3077892905011623" fill="#ffa00e" stroke="none" /><path d="M 79.62865764111835 94.90015583598534 l -8.202592394769166 -2.053470125694309 a29.45572359717629,29.45572359717629 0 0,0 0.1273660833351406,-0.49079347498555537 l 8.166029979563717 2.194360026228728" fill="#ff5a08" stroke="none" /><path d="M 79.71946130924805 94.55025226153421 l -11.85504940698156 -3.1856663020770317 a33.27561266211031,33.27561266211031 0 0,0 0.15340569158103792,-0.5518818934296443 l 11.798456944834163 3.3892594989256186" fill="#ff8e0d" stroke="none" /><path d="M 79.81627453868168 94.20196356495316 l -46.83336490804998 -13.453490369412812 a69.7274098606775,69.7274098606775 0 0,0 0.3413126925406029,-1.1507367236185908 l 46.59484631839767 14.257656479777943" fill="#3bff9b" stroke="none" /><path d="M 79.91906864156998 93.8553929516997 l -26.186606293133536 -8.01289555388598 a48.38512085620705,48.38512085620705 0 0,0 0.2505531695392965,-0.7943220172673906 l 26.044797639826033 8.462467737579784" fill="#b2ff20" stroke="none" /><path d="M 80.02781315780177 93.51064311812611 l -20.1416195517283 -6.544408906386321 a42.17815209362121,42.17815209362121 0 0,0 0.23029814584573294,-0.6885621431774533 l 20.025984112110795 6.890144152486097" fill="#fcff18" stroke="none" /><path d="M 80.14247586403 93.16781622104843 l -16.258224886309065 -5.593808149606036 a38.19361992334361,38.19361992334361 0 0,0 0.21924396259429288,-0.6198322059635896 l 16.159527842904964 5.872837981996236" fill="#ffcf13" stroke="none" /><path d="M 80.2630227832202 92.82701384747504 l -18.555684120479828 -6.743670207698855 a40.74311274974725,40.74311274974725 0 0,0 0.2452258334156613,-0.657083314940202 l 18.436853698562537 7.062076659668398" fill="#fff016" stroke="none" /><path d="M 80.38941819471856 92.48833698450439 l -32.94827371048294 -12.620550043487572 a56.28267313995745,56.28267313995745 0 0,0 0.3543301151906128,-0.901731494526913 l 32.726150045410634 13.18583054291025" fill="#5bff2a" stroke="none" /><path d="M 80.52162464483688 92.15188598940014 l -38.6018451047649 -15.553231513294945 a62.61736964295572,62.61736964295572 0 0,0 0.41142090642658646,-0.9962883585255413 l 38.32840251145211 16.215394442273798" fill="#32ff48" stroke="none" /><path d="M 80.65960295795068 91.81776055985345 l -25.85615352822362 -10.9388260597311 a49.07487472527924,49.07487472527924 0 0,0 0.3358340672061546,-0.7751513297943143 l 25.664028751174783 11.382276534112014" fill="#aaff21" stroke="none" /><path d="M 80.803312248108 91.48605970444005 l -8.253921194794549 -3.6607040321219735 a30.029283974971257,30.029283974971257 0 0,0 0.21363359281477426,-0.4707133035615252 l 8.189685285016422 3.8022393445255696" fill="#ff6209" stroke="none" /><path d="M 81.10775173730289 90.83032412892265 l -19.32763366105924 -9.380997622012805 a42.483960047447496,42.483960047447496 0 0,0 0.32498203770046163,-0.6551439573313845 l 19.16329161040537 9.712301167843151" fill="#f8ff18" stroke="none" /><path d="M 81.26839172434947 90.50648371742162 l -41.3950113175449 -20.979736933292287 a67.40793384508535,67.40793384508535 0 0,0 0.5334553683438223,-1.0304659762068165 l 41.027746516040956 21.68917563175944" fill="#38ff80" stroke="none" /><path d="M 81.43458229118936 90.18545643968196 l -21.83638279490586 -11.54372788707444 a45.69990419205064,45.69990419205064 0 0,0 0.3736334960127096,-0.6922861230178742 l 21.634441199674676 11.917894993424786" fill="#d1ff1c" stroke="none" /><path d="M 81.6062741919709 89.86733742301443 l -31.07708138342817 -17.119619093068263 a56.48050655224591,56.48050655224591 0 0,0 0.47643286436491267,-0.8475209038975778 l 30.777790877770826 17.652023506900623" fill="#59ff2a" stroke="none" /><line stroke="#e1ed5e" stroke-width="0.3" x1="26.266209847984243" x2="21.928928074336255" y1="57.711370442889674" y2="55.22380399835377" /><path d="M 25.398753493254645 57.213857153982495 a86.0,86.0 0 0,1 29.58750427330803,-30.492523968695096" fill="none" id="id35" stroke="none" /><text fill="#e1ed5e" style="font-size:6.75px; font-family:Arial;" text-anchor="middle"><textPath startOffset="21.46611528233685" xlink:href="#id35">November</textPath></text><path d="M 81.78341655067845 89.55222093294921 l -4.0761232266445555 -2.337783868228188 a25.698937536650085,25.698937536650085 0 0,0 0.22338535350985197,-0.38183798057458035 l 4.035278198664379 2.40760126115666" fill="#ff2403" stroke="none" /><path d="M 81.96595687620814 89.24020034530311 l -7.876244548977301 -4.699268644122841 a30.171605856388005,30.171605856388005 0 0,0 0.2699413371785887,-0.4437125820260372 l 7.7941874135124944 4.834148999355953" fill="#ff6409" stroke="none" /><path d="M 82.34701348167596 88.62581576622439 l -3.26950646410557 -2.10661062011549 a24.889406230211943,24.889406230211943 0 0,0 0.2351496161913139,-0.3581489981472268 l 3.232760212556336 2.1625776822403835" fill="#ff1802" stroke="none" /><path d="M 82.54541684631803 88.32363383020206 l -11.050437815475718 -7.392268101393096 a34.29502928152359,34.29502928152359 0 0,0 0.33245851956630285,-0.48784185423693804 l 10.921554830240675 7.58138797890045" fill="#ff9c0e" stroke="none" /><path d="M 82.7489923806493 88.02491185347247 l -10.027347669160635 -6.960658464922491 a33.20649284370897,33.20649284370897 0 0,0 0.32998933319309004,-0.4667465097326226 l 9.906045716163666 7.1322314749869005" fill="#ff8d0d" stroke="none" /><path d="M 82.95767976084542 87.72973835380427 l -20.479067548388848 -14.744677576913835 a46.23485138649758,46.23485138649758 0 0,0 0.4705769688652575,-0.6418664566871826 l 20.222227967009957 15.095006477272518" fill="#cbff1d" stroke="none" /><path d="M 83.17141714833178 87.43820079747576 l -7.138097137851685 -5.328276523588383 a29.907466612973046,29.907466612973046 0 0,0 0.3114991673905422,-0.40989639076397866 l 7.045322030237034 5.450357690233389" fill="#ff6008" stroke="none" /><path d="M 83.39014120810768 87.1503855733568 l -6.3790892634808065 -4.934950890062879 a29.065142287572396,29.065142287572396 0 0,0 0.30953811759862765,-0.3930819752622607 l 6.293197065288208 5.044025259278188" fill="#ff5407" stroke="none" /><path d="M 83.6137871275137 86.86637796730984 l -20.894297692077384 -16.746871938117142 a47.777404574694046,47.777404574694046 0 0,0 0.519867094761612,-0.6372955884005255 l 20.60293210523938 17.10405169612575" fill="#b9ff1f" stroke="none" /><path d="M 86.37877921826538 84.01681056812374 l -7.089502281397371 -8.318847462867646 a31.929970983877222,31.929970983877222 0 0,0 0.4213881334902796,-0.3529004433241456 l 6.945256610947981 8.439649063585605" fill="#ff7c0b" stroke="none" /><path d="M 86.65592168130627 83.78471172551755 l -15.57356305230335 -18.924485327709622 a45.50861095743218,45.50861095743218 0 0,0 0.6091578988659295,-0.492563323457283 l 15.245501754872919 19.18975474843104" fill="#d4ff1c" stroke="none" /><path d="M 87.22198572758235 83.33499621200491 l -15.362381895285012 -20.035519370969755 a46.24727339656869,46.24727339656869 0 0,0 0.6359084795926904,-0.4789530830638538 l 15.015227261933932 20.29698904353946" fill="#cbff1d" stroke="none" /><path d="M 87.51073957382395 83.11751280151077 l -6.0764836165288045 -8.213949694960993 a31.21727080649685,31.21727080649685 0 0,0 0.4347446218101125,-0.3158604565666546 l 5.9341936783649105 8.317329386344316" fill="#ff720a" stroke="none" /><path d="M 87.80319425747018 82.90503203632743 l -9.33213161188748 -13.07985830927096 a37.06771215239414,37.06771215239414 0 0,0 0.5225997759619162,-0.36611454021284506 l 9.105600696341904 13.238557692247749" fill="#ffc111" stroke="none" /><path d="M 88.09926311788651 82.69761687909137 l -24.144109773370193 -35.10292190729755 a63.60461434138772,63.60461434138772 0 0,0 0.9074116128934406,-0.6126883716238191 l 23.536293466070212 35.513322191220034" fill="#33ff54" stroke="none" /><path d="M 88.70189139769569 82.29822771554957 l -7.294291400966786 -11.4286284458271 a34.55803212840958,34.55803212840958 0 0,0 0.5041866274214005,-0.31572161983711233 l 7.0964856211731435 11.552494406987142" fill="#ffa00e" stroke="none" /><line stroke="#e1ed5e" stroke-width="0.3" x1="56.762969772571076" x2="54.21961505331055" y1="26.818313649435495" y2="22.513508569990535" /><path d="M 56.25429882871897 25.957352633546506 a86.0,86.0 0 0,1 42.265352541879196,-11.944610805530505" fill="none" id="id36" stroke="none" /><text fill="#e1ed5e" style="font-size:6.75px; font-family:Arial;" text-anchor="middle"><textPath startOffset="22.20632615414155" xlink:href="#id36">December</textPath></text><path d="M 89.63071344664047 81.73862282372117 l -5.10515744818917 -8.990705891473997 a31.339024373594764,31.339024373594764 0 0,0 0.4713925176953625,-0.262329425731621 l 4.949640841421762 9.077250714765803" fill="#ff740a" stroke="none" /><path d="M 90.91171255644093 81.06846463323043 l -7.972477230433566 -16.607225022980995 a39.42173488447024,39.42173488447024 0 0,0 0.6142690763128084,-0.2884075677779335 l 7.685429942821149 16.741997573398937" fill="#ffdf14" stroke="none" /><path d="M 91.23893434514133 80.91482961587045 l -6.553412040750147 -14.276001381836497 a36.708323425179614,36.708323425179614 0 0,0 0.5765267365109152,-0.25867074132144946 l 6.306703185772458 14.386692453674476" fill="#ffbc11" stroke="none" /><path d="M 91.56875222667455 80.76684994638697 l -2.389051655647394 -5.449844461251764 a26.950493464006836,26.950493464006836 0 0,0 0.4264803196978862,-0.18259661579498757 l 2.2948875781591993 5.490160605009537" fill="#ff3605" stroke="none" /><path d="M 93.25333710446033 80.11325718540243 l -9.459961809138413 -27.884575003536234 a50.445549758124656,50.445549758124656 0 0,0 0.8247058939709271,-0.2718925668960778 l 8.978573092925076 28.043281294691546" fill="#9bff22" stroke="none" /><path d="M 93.94186890950719 79.89281104454417 l -6.201567787762595 -20.5832613170586 a42.49721120221262,42.49721120221262 0 0,0 0.7022356193638848,-0.20500183386091095 l 5.846341950675289 20.68696147983821" fill="#f8ff18" stroke="none" /><path d="M 94.63758080256005 79.69619591428918 l -8.72814999901181 -33.04751849598708 a55.180682865441085,55.180682865441085 0 0,0 0.9204429868598081,-0.23464141186857324 l 8.157998123467003 33.192862904024516" fill="#67ff28" stroke="none" /><path d="M 94.98787191387505 79.60689891045804 l -10.466659624929962 -42.5862316631353 a64.85359838109487,64.85359838109487 0 0,0 1.0863790345578155,-0.2571108179809686 l 9.732056903409612 42.76008839325714" fill="#35ff63" stroke="none" /><path d="M 95.33964822691252 79.52364482259891 l -4.824333876903902 -21.1968492439376 a42.73891936656605,42.73891936656605 0 0,0 0.7187409683866092,-0.15708893719371358 l 4.458750184363772 21.27675167922718" fill="#f5ff19" stroke="none" /><path d="M 95.692805502759 79.44645832069477 l -4.616879556463856 -22.031330707934462 a43.5098891512435,43.5098891512435 0 0,0 0.7343507731220058,-0.1473038566748811 l 4.236962373874714 22.107538520686553" fill="#ecff1a" stroke="none" /></svg>