<?xml version="1.0" encoding="utf-8" ?>
<svg baseProfile="full" height="200mm" version="1.1" viewBox="0,0,200,200" width="200mm" xmlns="http://www.w3.org/2000/svg" xmlns:ev="http://www.w3.org/2001/xml-events" xmlns:xlink="http://www.w3.org/1999/xlink"><defs /><rect fill="#1a1a1a" height="200" width="200" x="0" y="0" /><text alignment-baseline="middle" fill="#e1ed5e" style="dominant-baseline: central; font-size:9.0px; font-family:Arial;" text-anchor="middle" x="100.0" y="100.0">2023</text><line stroke="#e1ed5e" stroke-width="0.3" x1="100.0" x2="100.0" y1="15.0" y2="10.0" /><path d="M 100.0 14.0 a86.0,86.0 0 0,1 42.46469731375804,11.215312516191453" fill="none" id="id37" stroke="none" /><text fill="#e1ed5e" style="font-size:6.75px; font-family:Arial;" text-anchor="middle"><textPath startOffset="22.20632615414155" xlink:href="#id37">January</textPath></text><path d="M 101.80526077348638 79.07773832637324 l 2.1232312834592517 -24.60741470628322 a45.698845511684624,45.698845511684624 0 0,0 0.7831364866971461,0.07436824579270543 l -2.546492897246642 24.567220915975337" fill="#feff18" stroke="none" /><path d="M 102.16513564639614 79.11191278185805 l 0.7778905258380016 -7.504677675468669 a28.544885730272284,28.544885730272284 0 0,0 0.4882987332773293,0.05486605218062348 l -0.9069559626250562 7.490175669817444" fill="#ff0000" stroke="none" /><path d="M 102.52436894288641 79.15227682838746 l 6.065497555596528 -50.09244559655445 a71.45833297326334,71.45833297326334 0 0,0 1.2198457093474782,0.15837098287957796 l -6.926857993451852 49.98061629051073" fill="#3cffa1" stroke="none" /><path d="M 103.2404852339499 79.25152402106235 l 2.754933088510879 -17.639538181408092 a38.853374010968516,38.853374010968516 0 0,0 0.6598982739369208,0.10888886942618864 l -3.0581605685866746 17.58950304904228" fill="#ffa00e" stroke="none" /><path d="M 103.95276090670814 79.375362276772 l 4.874742537333035 -25.43533525032583 a46.89825079231707,46.89825079231707 0 0,0 0.7915388294301035,0.15877524277298447 l -5.311847776230264 25.34765605147564" fill="#edff19" stroke="none" /><path d="M 105.71112130821622 79.79150937346287 l 4.809145234021103 -17.016897582538938 a38.68340129094308,38.68340129094308 0 0,0 0.6392151742708313,0.18660443780385316 l -5.101350626015361 16.931594815816382" fill="#ff9d0e" stroke="none" /><path d="M 106.74666289553966 80.11325718540242 l 6.148346601611221 -18.12312094058869 a40.13765081092109,40.13765081092109 0 0,0 0.652366787447224,0.22759796258268275 l -6.459395393121719 18.0146021248338" fill="#ffb310" stroke="none" /><path d="M 107.08798089147638 80.2323363322302 l 10.764926104832856 -30.022292936008 a52.893913324927496,52.893913324927496 0 0,0 0.8544071551842302,0.3146853658929495 l -11.280115585789662 29.832544302308726" fill="#a0ff22" stroke="none" /><path d="M 107.4271985657038 80.35727306442388 l 11.774375712770688 -31.13971505094906 a54.29140695254239,54.29140695254239 0 0,0 0.8712913399457576,0.3380475035758291 l -12.308650217716112 30.932424843482686" fill="#8fff24" stroke="none" /><path d="M 108.09893153111575 80.62456947434976 l 9.672407182331147 -23.139725611588105 a46.079919499081285,46.079919499081285 0 0,0 0.7291955090123557,0.31220346179837544 l -10.069286449133818 22.96980262182694" fill="#f8ff18" stroke="none" /><path d="M 108.76106565485865 80.91482961587045 l 18.969366026633292 -41.32300760655081 a66.46897629267065,66.46897629267065 0 0,0 1.0357189197891574,0.486283920315509 l -19.677863157722047 40.9903587035953" fill="#35ff62" stroke="none" /><path d="M 109.73455568895987 81.39251694778311 l 11.74780349884607 -22.455781392618402 a46.34310566999567,46.34310566999567 0 0,0 0.7036537524828586,0.3758674655036877 l -12.13260229785724 22.25023520061296" fill="#f5ff19" stroke="none" /><path d="M 110.05341064243156 81.56283822128135 l 6.193386194668664 -11.358181545598418 a33.93701358811549,33.93701358811549 0 0,0 0.5104707181581287,0.2840764019800787 l -6.387981001898828 11.249889746058159" fill="#ff5607" stroke="none" /><path d="M 110.36928655335952 81.73862282372117 l 14.789707179588476 -26.046191292271832 a50.952287379957944,50.952287379957944 0 0,0 0.758954380038879,0.43963536403408693 l -15.235858292092683 25.787751770847695" fill="#b9ff1f" stroke="none" /><line stroke="#e1ed5e" stroke-width="0.3" x1="143.23703022742887" x2="145.7803849466894" y1="26.81831364943548" y2="22.513508569990506" /><path d="M 143.74570117128098 25.957352633546492 a86.0,86.0 0 0,1 28.547481713284135,27.462654790039103" fill="none" id="id38" stroke="none" /><text fill="#e1ed5e" style="font-size:6.75px; font-family:Arial;" text-anchor="middle"><textPath startOffset="19.985693538727396" xlink:href="#id38">February</textPath></text><path d="M 110.99172775467656 82.1063720568725 l 14.870373851684562 -24.20774449804276 a49.410260684678406,49.410260684678406 0 0,0 0.7208741690513908,0.45141133852685755 l -15.284867173108216 23.94818881819296" fill="#ccff1d" stroke="none" /><path d="M 111.2981086023043 82.29822771554956 l 13.729596625164545 -21.51140527773414 a46.51945102294832,46.51945102294832 0 0,0 0.671282266779359,0.4366206592443456 l -14.097845917728185 21.271885694330265" fill="#f3ff19" stroke="none" /><path d="M 111.60114157652 82.49532879139004 l 16.908829451963374 -25.51330816254598 a51.60779977117956,51.60779977117956 0 0,0 0.7362597401644067,0.49712586315166873 l -17.345493886534324 25.21847038709564" fill="#b0ff20" stroke="none" /><path d="M 112.19680574252982 82.90503203632743 l 14.68920029992747 -20.588292856351174 a46.29131092273135,46.29131092273135 0 0,0 0.644671937689324,0.4683815793429131 l -15.041417553970582 20.332392042191586" fill="#f6ff19" stroke="none" /><path d="M 112.48926042617603 83.11751280151076 l 17.03633938021832 -23.029048292791213 a49.64566153450968,49.64566153450968 0 0,0 0.682636938919008,0.5141479898458825 l -17.430222472895707 22.732383713439486" fill="#c9ff1d" stroke="none" /><path d="M 112.77801427241765 83.33499621200491 l 22.194296500590458 -28.945658329136133 a57.47516872151807,57.47516872151807 0 0,0 0.7799310463024588,0.6087485527003341 l -22.689260102052348 28.559331387212577" fill="#69ff28" stroke="none" /><path d="M 113.34407831869373 83.78471172551755 l 16.191432442769603 -19.675300036909405 a46.480971647313204,46.480971647313204 0 0,0 0.6134214746128482,0.5137228439310519 l -16.52771145434157 19.393676035584534" fill="#f3ff19" stroke="none" /><path d="M 113.6212207817346 84.01681056812373 l 15.353878560933184 -18.01629629867637 a44.67125934937944,44.67125934937944 0 0,0 0.5809522833606781,0.5037960953315167 l -15.661724642940626 17.74933520992518" fill="#fff216" stroke="none" /><path d="M 113.89432698308785 84.25364557470407 l 16.12321099637417 -18.272334826419524 a45.368753616924785,45.368753616924785 0 0,0 0.5811283918770216,0.521742808066136 l -16.43535037584718 17.992093009584092" fill="#fffc17" stroke="none" /><path d="M 114.42810811169701 84.74124197986012 l 14.830402347655786 -15.684212996763979 a42.585536155518916,42.585536155518916 0 0,0 0.5282974165838988,0.5082216961842161 l -15.098183007852104 15.426608213817461" fill="#ffd513" stroke="none" /><path d="M 114.68862486808459 84.99185889309783 l 20.886244274466275 -21.340575042222692 a50.86059850413942,50.86059850413942 0 0,0 0.6204125961344736,0.6177483472801985 l -21.250492670768068 20.977890844292375" fill="#baff1f" stroke="none" /><path d="M 114.94478906791727 85.2469230424477 l 17.716959810747245 -17.48968622801992 a45.89537686580026,45.89537686580026 0 0,0 0.5501669756159773,0.5669954294147411 l -18.01539105006633 17.182126603055067" fill="#fbff18" stroke="none" /><path d="M 115.19652480421416 85.50635884689758 l 18.333107997356873 -17.48514821369405 a46.334428292298185,46.334428292298185 0 0,0 0.5454945138891634,0.5818955139118931 l -18.631369833216496 17.166983282904102" fill="#f5ff19" stroke="none" /><path d="M 115.68641384162765 86.03803664274999 l 38.32596010642186 -34.11268222551013 a72.30842335033961,72.30842335033961 0 0,0 0.8195234804399207,0.9368570071009017 l -38.90747545043963 33.44790966220628" fill="#3dffab" stroke="none" /><path d="M 116.15771136456269 86.58626213691792 l 31.348331443268044 -26.02462012951 a61.74308207735744,61.74308207735744 0 0,0 0.67182796945363,0.823581652716865 l -31.791657904798086 25.481154307185037" fill="#39ff2e" stroke="none" /><path d="M 116.38621287248628 86.86637796730983 l 19.89792720439286 -15.948276588989978 a46.50049084214348,46.50049084214348 0 0,0 0.49522119177253016,0.6288806230517062 l -20.169502476759355 15.603403571985233" fill="#f3ff19" stroke="none" /><path d="M 116.60985879189232 87.15038557335679 l 19.071947252812073 -14.754319806953182 a45.1128414953505,45.1128414953505 0 0,0 0.4698697066613874,0.6182934564584626 l -19.323092899697574 14.423841574613686" fill="#fff817" stroke="none" /><path d="M 116.82858285166822 87.43820079747576 l 7.108575300297322 -5.306239766321531 a29.87062699349314,29.87062699349314 0 0,0 0.3040223702937702,0.41468617141349084 l -7.198860283104719 5.183091151236547" fill="#ff1602" stroke="none" /><path d="M 117.04232023915458 87.72973835380427 l 20.668311669026398 -14.880931023782654 a46.468043022238476,46.468043022238476 0 0,0 0.4617759124357813,0.6531492800765204 l -20.921400201266064 14.52295524337434" fill="#f3ff19" stroke="none" /><path d="M 117.2510076193507 88.02491185347247 l 51.75302285805209 -35.92526443958259 a84.0,84.0 0 0,0 0.8143021373250665,1.1948879069183742 l -52.36374946104589 35.02909850939381" fill="#4dd2ff" stroke="none" /><path d="M 117.45458315368197 88.32363383020206 l 10.593083132835469 -7.086317469575643 a33.744775617435415,33.744775617435415 0 0,0 0.3188131915043354,0.4855743631769341 l -10.71349295969773 6.902925042421034" fill="#ff5307" stroke="none" /><path d="M 117.65298651832404 88.62581576622439 l 26.72819963614804 -17.22153169850971 a52.79587724584052,52.79587724584052 0 0,0 0.48565269123249843,0.7681859277837423 l -27.020679923626496 16.758898123011765" fill="#a1ff22" stroke="none" /><line stroke="#e1ed5e" stroke-width="0.3" x1="172.23445277983987" x2="176.4835382374775" y1="55.19839476539836" y2="52.563006222186495" /><path d="M 173.08426987136738 54.67131705675599 a86.0,86.0 0 0,1 12.851231095245387,41.99856678651699" fill="none" id="id39" stroke="none" /><text fill="#e1ed5e" style="font-size:6.75px; font-family:Arial;" text-anchor="middle"><textPath startOffset="22.20632615414155" xlink:href="#id39">March</textPath></text><path d="M 117.84615892207809 88.93136811851018 l 27.917610381413656 -17.31519671386765 a53.85131666536896,53.85131666536896 0 0,0 0.48180055442421965,0.7919534305474525 l -28.2115267341241 16.832075510113114" fill="#95ff23" stroke="none" /><path d="M 118.03404312379186 89.2402003453031 l 23.620973569868415 -14.093175973687888 a48.50578123620116,48.50578123620116 0 0,0 0.4216314808060595,0.7207048745501373 l -23.8600647251448 13.684491686783856" fill="#d8ff1c" stroke="none" /><path d="M 118.21658344932153 89.55222093294921 l 26.95696402255218 -15.46066007435393 a52.07587358784777,52.07587358784777 0 0,0 0.43927824186230685,0.7814269762896171 l -27.21909990570692 14.99434958812952" fill="#aaff21" stroke="none" /><path d="M 118.56541770881063 90.18545643968196 l 45.27798987526767 -23.936052014793194 a72.21553429575569,72.21553429575569 0 0,0 0.5715019323455569,1.103959827880055 l -45.683301240773346 23.153119464652793" fill="#3dffaa" stroke="none" /><path d="M 118.73160827565052 90.50648371742162 l 39.15610634161677 -19.845019586477566 a64.89789819824725,64.89789819824725 0 0,0 0.49643797742464174,1.0007886694320784 l -39.49190433199482 19.16807132854654" fill="#32ff4e" stroke="none" /><path d="M 118.89224826269711 90.83032412892265 l 33.039427106974635 -16.03625112926567 a57.72553735261017,57.72553735261017 0 0,0 0.4261843606001833,0.897652953986673 l -33.31056966141657 15.465155759638456" fill="#66ff29" stroke="none" /><path d="M 119.04729006885535 91.15688171328212 l 49.85404696629017 -23.145824566160265 a75.96503610264014,75.96503610264014 0 0,0 0.5404285897871492,1.1907627610717741 l -50.245077873040664 22.28423979624643" fill="#42ffd6" stroke="none" /><path d="M 119.196687751892 91.48605970444005 l 22.412822439440017 -9.94033109100143 a45.51825425882919,45.51825425882919 0 0,0 0.31149504803508177,0.7189735178370549 l -22.58060819731778 9.553058428577772" fill="#fffe18" stroke="none" /><path d="M 119.34039704204932 91.81776055985345 l 35.03938456978997 -14.823927024975843 a59.04612047859078,59.04612047859078 0 0,0 0.38795638569287194,0.9394671603797695 l -35.28936264236904 14.21858529414277" fill="#57ff2a" stroke="none" /><line stroke="#e1ed5e" stroke-width="0.3" x1="184.98032266829074" x2="189.97916517819016" y1="98.17113171792111" y2="98.06355123074" /><path d="M 185.9800911702706 98.14961562048488 a86.0,86.0 0 0,1 -9.607161424134198,41.387399972396054" fill="none" id="id40" stroke="none" /><text fill="#e1ed5e" style="font-size:6.75px; font-family:Arial;" text-anchor="middle"><textPath startOffset="21.466115282336823" xlink:href="#id40">April</textPath></text><line stroke="#e1ed5e" stroke-width="0.3" x1="174.80103733775053" x2="179.2010983576182" y1="140.37084112569926" y2="142.7455964860345" /><path d="M 175.68104954172406 140.8457921977663 a86.0,86.0 0 0,1 -30.038265399797805,32.042727171017184" fill="none" id="id41" stroke="none" /><text fill="#e1ed5e" style="font-size:6.75px; font-family:Arial;" text-anchor="middle"><textPath startOffset="22.206326154141568" xlink:href="#id41">May</textPath></text><line stroke="#e1ed5e" stroke-width="0.3" x1="143.8653032363475" x2="146.44561519142675" y1="172.8068346515853" y2="177.08958963109032" /><path d="M 144.38136562736335 173.6633856474863 a86.0,86.0 0 0,1 -40.68145358897372,12.25698825130547" fill="none" id="id42" stroke="none" /><text fill="#e1ed5e" style="font-size:6.75px; font-family:Arial;" text-anchor="middle"><textPath startOffset="21.466115282336833" xlink:href="#id42">June</textPath></text><line stroke="#e1ed5e" stroke-width="0.3" x1="102.19456741930631" x2="102.32365962044197" y1="184.97166512339345" y2="189.96999836594603" /><path d="M 102.22038585953345 185.97133177190398 a86.0,86.0 0 0,1 -42.740103519485714,-10.115201625700543" fill="none" id="id43" stroke="none" /><text fill="#e1ed5e" style="font-size:6.75px; font-family:Arial;" text-anchor="middle"><textPath startOffset="22.20632615414155" xlink:href="#id43">July</textPath></text><line stroke="#e1ed5e" stroke-width="0.3" x1="58.666819895761336" x2="56.23545636021788" y1="174.27360380694188" y2="178.64263932499728" /><path d="M 58.180547188652646 175.14741091055294 a86.0,86.0 0 0,1 -31.652253787137756,-30.449443065178592" fill="none" id="id44" stroke="none" /><text fill="#e1ed5e" style="font-size:6.75px; font-family:Arial;" text-anchor="middle"><textPath startOffset="22.20632615414155" xlink:href="#id44">August</textPath></text><line stroke="#e1ed5e" stroke-width="0.3" x1="26.63291911575756" x2="22.317208475507996" y1="142.92168965132927" y2="145.44649492493687" /><path d="M 25.769776987707644 143.4266507060508 a86.0,86.0 0 0,1 -11.730757126820373,-40.83630448921669" fill="none" id="id45" stroke="none" /><text fill="#e1ed5e" style="font-size:6.75px; font-family:Arial;" text-anchor="middle"><textPath startOffset="21.46611528233685" xlink:href="#id45">September</textPath></text><line stroke="#e1ed5e" stroke-width="0.3" x1="15.007084014347285" x2="10.007500721073583" y1="101.09737516637583" y2="101.16192664675087" /><path d="M 14.007167355692545 101.11028546245083 a86.0,86.0 0 0,1 10.666146001902534,-42.60595125391555" fill="none" id="id46" stroke="none" /><text fill="#e1ed5e" style="font-size:6.75px; font-family:Arial;" text-anchor="middle"><textPath startOffset="22.20632615414155" xlink:href="#id46">October</textPath></text><line stroke="#e1ed5e" stroke-width="0.3" x1="26.266209847984243" x2="21.928928074336255" y1="57.711370442889674" y2="55.22380399835377" /><path d="M 25.398753493254645 57.213857153982495 a86.0,86.0 0 0,1 29.58750427330803,-30.492523968695096" fill="none" id="id47" stroke="none" /><text fill="#e1ed5e" style="font-size:6.75px; font-family:Arial;" text-anchor="middle"><textPath startOffset="21.46611528233685" xlink:href="#id47">November</textPath></text><line stroke="#e1ed5e" stroke-width="0.3" x1="56.762969772571076" x2="54.21961505331055" y1="26.818313649435495" y2="22.513508569990535" /><path d="M 56.25429882871897 25.957352633546506 a86.0,86.0 0 0,1 42.265352541879196,-11.944610805530505" fill="none" id="id48" stroke="none" /><text fill="#e1ed5e" style="font-size:6.75px; font-family:Arial;" text-anchor="middle"><textPath startOffset="22.20632615414155" xlink:href="#id48">December</textPath></text></svg>