<?xml version="1.0" encoding="utf-8" ?>
<svg baseProfile="full" height="200mm" version="1.1" viewBox="0,0,200,200" width="200mm" xmlns="http://www.w3.org/2000/svg" xmlns:ev="http://www.w3.org/2001/xml-events" xmlns:xlink="http://www.w3.org/1999/xlink"><defs /><rect fill="#1a1a1a" height="200" width="200" x="0" y="0" /><text alignment-baseline="middle" fill="#e1ed5e" style="dominant-baseline: central; font-size:9.0px; font-family:Arial;" text-anchor="middle" x="100.0" y="100.0">2021</text><line stroke="#e1ed5e" stroke-width="0.3" x1="100.0" x2="100.0" y1="15.0" y2="10.0" /><path d="M 100.0 14.0 a86.0,86.0 0 0,1 42.46469731375804,11.215312516191453" fill="none" id="id13" stroke="none" /><text fill="#e1ed5e" style="font-size:6.75px; font-family:Arial;" text-anchor="middle"><textPath startOffset="22.20632615414155" xlink:href="#id13">January</textPath></text><path d="M 100.0 79.0 l 0.0 -38.37373986622084 a59.37373986622084,59.37373986622084 0 0,0 1.0220213306211396,0.008796860256305652 l -0.6605408513486113 38.36805438257309" fill="#3bff2e" stroke="none" /><path d="M 100.36148047927253 79.00311137660856 l 0.1887461169358361 -10.963472227808767 a31.96509682522651,31.96509682522651 0 0,0 0.5500635521930454,0.01420651870759233 l -0.37743630432374925 10.958598916958815" fill="#ff7d0b" stroke="none" /><path d="M 101.08401301168833 79.027996857942 l 0.5262927492016342 -10.181993270273074 a31.195585859270096,31.195585859270096 0 0,0 0.5360262517479522,0.03233456732963464 l -0.7014810497891982 10.171425433563135" fill="#ff730a" stroke="none" /><path d="M 101.44485096284872 79.0497635885617 l 0.28594819051988574 -4.146228467054605 a25.156077100906042,25.156077100906042 0 0,0 0.43173795163447104,0.03351117434593419 l -0.35727633151669796 4.140692030520206" fill="#ff1c02" stroke="none" /><path d="M 101.80526077348638 79.07773832637324 l 1.5653266353176458 -18.14151946899359 a39.208925726662414,39.208925726662414 0 0,0 0.671919388705271,0.06380684223111945 l -1.877371151113161 18.111887082247293" fill="#ffdd14" stroke="none" /><path d="M 102.52436894288641 79.15227682838746 l 0.4331721994379365 -3.5773907474851256 a24.603520877497186,24.603520877497186 0 0,0 0.4199999934015455,0.054528053224042375 l -0.49468692134732806 3.5694043710969465" fill="#ff1402" stroke="none" /><path d="M 102.88285421437855 79.19881850522331 l 0.5656186151502358 -4.081210701492418 a25.120219072789784,25.120219072789784 0 0,0 0.42779855042177795,0.06304638591527865 l -0.6357861460006695 4.070869831416171" fill="#ff1c02" stroke="none" /><path d="M 103.2404852339499 79.25152402106235 l 0.6002275354901968 -3.843191899638762 a24.88978110846994,24.88978110846994 0 0,0 0.4227360946184572,0.06975507775467558 l -0.6662928362475291 3.8322905589444622" fill="#ff1902" stroke="none" /><path d="M 103.59715602781102 79.31037775812273 l 0.6123462817093444 -3.5220082620364037 a24.574844075841064,24.574844075841064 0 0,0 0.4161397357859312,0.07604687681662792 l -0.6728811385981764 3.5109459038690374" fill="#ff1402" stroke="none" /><path d="M 103.95276090670814 79.375362276772 l 1.6075039363207564 -8.387602262766128 a29.540254131092716,29.540254131092716 0 0,0 0.4985742065207988,0.10000929548545695 l -1.7516445523086805 8.358689011203463" fill="#ff5b08" stroke="none" /><path d="M 104.307194497241 79.44645832069477 l 2.9503781433674314 -14.078937038542698 a35.384755796471126,35.384755796471126 0 0,0 0.5950659030273526,0.13005835812673688 l -3.192286770548312 14.02606518232009" fill="#ffab0f" stroke="none" /><path d="M 104.66035177308747 79.52364482259891 l 3.411993482799371 -14.991398464861401 a36.3747756880845,36.3747756880845 0 0,0 0.6093230704342667,0.1442070843329515 l -3.6695402401961617 14.93044546838758" fill="#ffb811" stroke="none" /><path d="M 105.01212808612495 79.60689891045804 l 0.9600004070003363 -3.9060026019995893 a25.02224528196235,25.02224528196235 0 0,0 0.41738429082926093,0.10640054918128192 l -1.0270935865146222 3.8888990566494397" fill="#ff1b02" stroke="none" /><path d="M 105.36241919743992 79.69619591428918 l 1.0754835028651046 -4.072118485256062 a25.211747110511162,25.211747110511162 0 0,0 0.4186375920853929,0.11442946804359597 l -1.1454189841742082 4.0530024763861725" fill="#ff1d03" stroke="none" /><path d="M 105.71112130821622 79.79150937346287 l 1.1299849878494164 -3.9983901238852972 a25.154995746754565,25.154995746754565 0 0,0 0.4156680760594961,0.1213449097709116 l -1.1986432816323398 3.978346885195682" fill="#ff1c02" stroke="none" /><path d="M 106.0581310904928 79.89281104454417 l 5.237443159509141 -17.383291592513817 a39.15515456941776,39.15515456941776 0 0,0 0.6436634329112272,0.19998936179856225 l -5.535891965131086 17.290562095832733" fill="#ffdc14" stroke="none" /><path d="M 106.40334571778207 80.00007090966166 l 3.0000745776791096 -9.370301318057152 a30.83885126744073,30.83885126744073 0 0,0 0.5041670182106476,0.1662159391945214 l -3.1609244181321747 9.317271654603394" fill="#ff6e0a" stroke="none" /><path d="M 106.74666289553966 80.11325718540242 l 1.2388896787937687 -3.6518024984054547 a24.856229910622815,24.856229910622815 0 0,0 0.40399421807791874,0.1409456500529725 l -1.301565900934961 3.6299359951802748" fill="#ff1802" stroke="none" /><path d="M 107.08798089147638 80.2323363322302 l 3.860800365602555 -10.76738274046577 a32.43863237204155,32.43863237204155 0 0,0 0.5239884489696356,0.19298936787594484 l -4.045571140344768 10.6993301047835" fill="#ff840c" stroke="none" /><path d="M 107.4271985657038 80.35727306442388 l 1.556799586333752 -4.117270986799583 a25.40176616038955,25.40176616038955 0 0,0 0.40765823022824027,0.15816505997795924 l -1.6274409815616595 4.0898632229310765" fill="#ff2003" stroke="none" /><path d="M 108.43124777332544 80.76684994638697 l 6.559053192723668 -14.962346933320836 a37.33686030233576,37.33686030233576 0 0,0 0.5863982937151501,0.2630998212900043 l -6.815633604905598 14.847226781514301" fill="#ffc512" stroke="none" /><path d="M 109.08828744355905 81.06846463323043 l 3.9450709006220714 -8.217857296367862 a30.1157425893013,30.1157425893013 0 0,0 0.4654011326450442,0.2283703145739955 l -4.085943300277547 8.148731821659034" fill="#ff6409" stroke="none" /><path d="M 109.41281617654863 81.2277094730956 l 3.6258403589041786 -7.231133312802239 a29.089252579551257,29.089252579551257 0 0,0 0.445674378159636,0.22829172658012725 l -3.74977522465257 7.167649060909611" fill="#ff5507" stroke="none" /><path d="M 109.73455568895987 81.39251694778311 l 4.4185700661998935 -8.446042146031672 a30.532019165027997,30.532019165027997 0 0,0 0.4635850262029388,0.2476310660314485 l -4.563300138931144 8.36873235349847" fill="#ff6909" stroke="none" /><line stroke="#e1ed5e" stroke-width="0.3" x1="143.23703022742887" x2="145.7803849466894" y1="26.81831364943548" y2="22.513508569990506" /><path d="M 143.74570117128098 25.957352633546492 a86.0,86.0 0 0,1 28.547481713284135,27.462654790039103" fill="none" id="id14" stroke="none" /><text fill="#e1ed5e" style="font-size:6.75px; font-family:Arial;" text-anchor="middle"><textPath startOffset="19.985693538727396" xlink:href="#id14">February</textPath></text><path d="M 111.60114157652 82.49532879139004 l 1.9949491636709262 -3.010128697905798 a24.611190516102326,24.611190516102326 0 0,0 0.3511141496995474,0.23707384121692598 l -2.0464680077770154 2.9753429443902015" fill="#ff1402" stroke="none" /><path d="M 112.19680574252982 82.90503203632743 l 3.6624156381444166 -5.133219248168999 a27.30580908022892,27.30580908022892 0 0,0 0.38027198839343773,0.2762837717769918 l -3.7502329428916434 5.0694162415753325" fill="#ff3c05" stroke="none" /><path d="M 112.48926042617603 83.11751280151076 l 6.693883231554772 -9.048526022249547 a32.2553940798631,32.2553940798631 0 0,0 0.44351757631426453,0.33404824339626327 l -6.84864696162742 8.931961189347437" fill="#ff810b" stroke="none" /><path d="M 112.77801427241765 83.33499621200491 l 3.787681350680966 -4.93986958467169 a27.224856747577476,27.224856747577476 0 0,0 0.3694379935003665,0.2883522138553885 l -3.872151899340763 4.873938981593077" fill="#ff3b05" stroke="none" /><path d="M 113.06298171725822 83.55741782278167 l 4.6381707562415615 -5.838139060603357 a28.45630576458591,28.45630576458591 0 0,0 0.38090337332546564,0.30799737117514175 l -4.737977528131518 5.757435592164086" fill="#ff4c07" stroke="none" /><path d="M 113.34407831869373 83.78471172551755 l 8.225682303133446 -9.995580557464423 a33.94501757560968,33.94501757560968 0 0,0 0.44798122756526276,0.37517139483549844 l -8.396521067657828 9.852508005235107" fill="#ff980e" stroke="none" /><path d="M 113.89432698308785 84.25364557470407 l 5.151775869493172 -5.838475577800051 a28.786436391704473,28.786436391704473 0 0,0 0.3687254807445447,0.3310453772664857 l -5.251512337833707 5.748931191764268" fill="#ff5107" stroke="none" /><path d="M 114.16331599549186 84.49514656593476 l 8.267399349226062 -9.050480497041605 a33.258103002786115,33.258103002786115 0 0,0 0.4193563559560331,0.38974602975442335 l -8.421963588976942 8.90682988121254" fill="#ff8f0d" stroke="none" /><path d="M 114.42810811169701 84.74124197986012 l 13.456192465639248 -14.230887592196503 a40.585384278437296,40.585384278437296 0 0,0 0.5034844128077162,0.4843516062108455 l -13.699160122059382 13.997152899223355" fill="#ffee16" stroke="none" /><path d="M 114.68862486808459 84.99185889309783 l 2.672862298922125 -2.7310040866183005 a24.821331729924154,24.821331729924154 0 0,0 0.3027779324465461,0.3014777077821106 l -2.719476031535994 2.6845905281860714" fill="#ff1802" stroke="none" /><path d="M 114.94478906791727 85.2469230424477 l 5.054799507569391 -4.989956419007621 a28.102863023128005,28.102863023128005 0 0,0 0.33688071024656185,0.34718518455953146 l -5.139944481519062 4.902207038897975" fill="#ff4706" stroke="none" /><path d="M 115.19652480421416 85.50635884689758 l 1.6127047971282018 -1.5381124906255628 a23.228588521126923,23.228588521126923 0 0,0 0.27346981652020824,0.2917185331322155 l -1.6389419356188728 1.5101245406152926" fill="#ff0000" stroke="none" /><path d="M 115.4437574822437 85.77008943001954 l 10.463228600147618 -9.640840800857449 a35.227612733217924,35.227612733217924 0 0,0 0.4070573455062308,0.44948288776254697 l -10.627629586269885 9.459305125825352" fill="#ffa90f" stroke="none" /><path d="M 115.68641384162765 86.03803664274999 l 19.047774232272637 -16.95380018359675 a46.499981252325554,46.499981252325554 0 0,0 0.5270178038824286,0.6024724540767787 l -19.336783899732914 16.623412173317025" fill="#c8ff1d" stroke="none" /><path d="M 115.9244219780498 86.31012108654704 l 3.0990394078510537 -2.664176715486382 a25.086793709346438,25.086793709346438 0 0,0 0.27868965304898463,0.32988064596842126 l -3.144439674387155 2.610437119888854" fill="#ff1b02" stroke="none" /><path d="M 116.15771136456269 86.58626213691792 l 17.128136380042307 -14.219361040753755 a43.26125073441819,43.26125073441819 0 0,0 0.4707267155940534,0.5770552939649385 l -17.370361587712768 13.922421577180716" fill="#eeff19" stroke="none" /><path d="M 116.38621287248628 86.86637796730983 l 6.081336743219431 -4.874218274868311 a28.793629473838934,28.793629473838934 0 0,0 0.30664655889111636,0.3894099893461062 l -6.164337382704511 4.768815891569166" fill="#ff5107" stroke="none" /><path d="M 116.60985879189232 87.15038557335679 l 11.830496029584316 -9.15223388475134 a35.95740690718819,35.95740690718819 0 0,0 0.3745119056073192,0.49281376798710663 l -11.986283875415749 8.947235340883198" fill="#ffb310" stroke="none" /><path d="M 116.82858285166822 87.43820079747576 l 7.6178026299173585 -5.686355639387481 a30.50608002101653,30.50608002101653 0 0,0 0.3104899926734443,0.4235080010709061 l -7.714555235104429 5.55438519464508" fill="#ff6909" stroke="none" /><path d="M 117.04232023915458 87.72973835380427 l 23.200159207839096 -16.703830213186084 a49.58785285851369,49.58785285851369 0 0,0 0.4927790048854171,0.69700095567998 l -23.484250832528396 16.30200275717431" fill="#a4ff21" stroke="none" /><path d="M 117.45458315368197 88.32363383020206 l 2.739373192462437 -1.832522964845052 a24.29580125375702,24.29580125375702 0 0,0 0.22954136740097805,0.349607250479712 l -2.77051119522134 1.785097650387666" fill="#ff1001" stroke="none" /><path d="M 117.65298651832404 88.62581576622439 l 3.0947518681450976 -1.9940126204461335 a24.681518091207217,24.681518091207217 0 0,0 0.22703753228463952,0.3591188528929876 l -3.1286169966756927 1.9404461198389398" fill="#ff1602" stroke="none" /><line stroke="#e1ed5e" stroke-width="0.3" x1="172.23445277983987" x2="176.4835382374775" y1="55.19839476539836" y2="52.563006222186495" /><path d="M 173.08426987136738 54.67131705675599 a86.0,86.0 0 0,1 12.851231095245387,41.99856678651699" fill="none" id="id15" stroke="none" /><text fill="#e1ed5e" style="font-size:6.75px; font-family:Arial;" text-anchor="middle"><textPath startOffset="22.20632615414155" xlink:href="#id15">March</textPath></text><path d="M 118.3937258080291 89.86733742301442 l 2.8319049829737586 -1.5600285631109923 a24.233167943413047,24.233167943413047 0 0,0 0.19812565076965485,0.3670967408046639 l -2.8583387329618786 1.5110508389738697" fill="#ff0f01" stroke="none" /><path d="M 118.56541770881063 90.18545643968196 l 14.317064079752837 -7.5686661765716305 a37.194537089899434,37.194537089899434 0 0,0 0.2943514858246411,0.5685933804170025 l -14.445224998737595 7.321100073894284" fill="#ffc312" stroke="none" /><path d="M 119.04729006885535 91.15688171328212 l 16.497480256250217 -7.659313677243783 a39.18878612804547,39.18878612804547 0 0,0 0.27879589754994866,0.6142898044546689 l -16.62687847076351 7.374201863947051" fill="#ffdd14" stroke="none" /><path d="M 119.196687751892 91.48605970444005 l 8.3307036378109 -3.694757882663145 a30.113279262292867,30.113279262292867 0 0,0 0.2060741898615824,0.4756476424097647 l -8.393068537515164 3.5508110956667776" fill="#ff6309" stroke="none" /><path d="M 119.34039704204932 91.81776055985345 l 12.662793899351088 -5.3571812119705555 a34.749390527413695,34.749390527413695 0 0,0 0.2283172517478711,0.5528883350694296 l -12.753132837985158 5.138418306447823" fill="#ffa30f" stroke="none" /><path d="M 119.47837535516314 92.15188598940014 l 6.81869457612699 -2.747348865659811 a28.351361881457468,28.351361881457468 0 0,0 0.1784872814460365,0.45423066274171864 l -6.864975407454727 2.629569198022308" fill="#ff4b06" stroke="none" /><path d="M 119.61058180528143 92.48833698450437 l 16.014114781761023 -6.134067562424874 a38.14872173381474,38.14872173381474 0 0,0 0.22961063722297648,0.6152423525309176 l -16.117330007485627 5.857502072864623" fill="#ffcf13" stroke="none" /><path d="M 119.97218684219823 93.5106431181261 l 3.706916801635646 -1.204450281148111 a24.89768298531402,24.89768298531402 0 0,0 0.12892792816812082,0.4087367650264183 l -3.727100213571973 1.1404633496952736" fill="#ff1902" stroke="none" /><path d="M 120.08093135843002 93.85539295169968 l 3.6130533115684886 -1.105565894722736 a24.77841635871566,24.77841635871566 0 0,0 0.12128928955175698,0.40892718823285246 l -3.6315484982319477 1.0432093197433536" fill="#ff1702" stroke="none" /><path d="M 120.18372546131832 94.20196356495316 l 7.854284538080168 -2.2562449142646757 a29.17192919195158,29.17192919195158 0 0,0 0.13448707970867707,0.4838215807152116 l -7.891958388355208 2.120712030130512" fill="#ff5608" stroke="none" /><path d="M 120.28053869075195 94.5502522615342 l 6.954287187223528 -1.868742810490301 a28.200993679634813,28.200993679634813 0 0,0 0.121940651000631,0.46988707102754756 l -6.985424170094462 1.748759313913903" fill="#ff4806" stroke="none" /><path d="M 120.37134235888165 94.90015583598534 l 13.254844411050449 -3.3182713109303807 a34.66388761861349,34.66388761861349 0 0,0 0.13992193740492942,0.5800667636799732 l -13.309999148716198 3.0896193155910012" fill="#ffa20e" stroke="none" /><path d="M 120.53481517161879 95.60439243477599 l 3.896634760341271 -0.8340994106021327 a24.984907060681177,24.984907060681177 0 0,0 0.08640102582119201,0.42132208660389814 l -3.91041508207746 0.7669016678348227" fill="#ff1a02" stroke="none" /><path d="M 120.6074358757038 95.95851677861258 l 4.021006857735938 -0.7885906740965937 a25.09760556926012,25.09760556926012 0 0,0 0.07949281266834385,0.424653783902657 l -4.033985394314142 0.7192588127313739" fill="#ff1c02" stroke="none" /><path d="M 120.67395015179393 96.31383870115 l 24.026299067832177 -4.28388445982364 a45.40521896976202,45.40521896976202 0 0,0 0.13056841194526597,0.7706221583549758 l -24.096479341297666 3.869676513152826" fill="#d5ff1c" stroke="none" /><path d="M 120.73433829027371 96.67025291283417 l 3.775097257748158 -0.6062464556031272 a24.823466237642098,24.823466237642098 0 0,0 0.06412032132383806,0.42247280318278413 l -3.7849734725112962 0.5411745400282609" fill="#ff1802" stroke="none" /><path d="M 120.91429891909075 98.10471618934814 l 3.613270459759949 -0.32743975939057546 a24.62807665456556,24.62807665456556 0 0,0 0.03462650836948091,0.4225311078371536 l -3.6183714519489247 0.2651947343456531" fill="#ff1502" stroke="none" /><path d="M 120.94382443527127 98.46500227214037 l 7.6008831373547485 -0.5570777381955754 a28.62127024019729,28.62127024019729 0 0,0 0.031782433652586255,0.49166018136740597 l -7.60934616201175 0.4261584925751341" fill="#ff4e07" stroke="none" /><path d="M 120.96714384426684 98.82574320788733 l 4.020897572687708 -0.22518881542413438 a25.027198442172676,25.027198442172676 0 0,0 0.020386907684277738,0.430335399514796 l -4.024178088605482 0.15594230928633862" fill="#ff1b02" stroke="none" /><line stroke="#e1ed5e" stroke-width="0.3" x1="184.98032266829074" x2="189.97916517819016" y1="98.17113171792111" y2="98.06355123074" /><path d="M 185.9800911702706 98.14961562048488 a86.0,86.0 0 0,1 -9.607161424134198,41.387399972396054" fill="none" id="id16" stroke="none" /><text fill="#e1ed5e" style="font-size:6.75px; font-family:Arial;" text-anchor="middle"><textPath startOffset="21.466115282336823" xlink:href="#id16">April</textPath></text><path d="M 120.99980553446 99.90962569577887 l 2.8049643044220782 -0.01207138308787058 a23.80499027937205,23.80499027937205 0 0,0 -0.0017634994238558818,0.40977515987840074 l -2.8047565077087193 -0.036213254994214863" fill="#ff0901" stroke="none" /><path d="M 120.9904718944345 100.63252640178507 l 2.6120266397540024 0.07871075124558832 a23.613212304644655,23.613212304644655 0 0,0 -0.015739743276035712,0.40617283597745174 l -2.610284763626763 -0.12366083423704623" fill="#ff0600" stroke="none" /><path d="M 120.9764740272857 100.99374915477107 l 8.293957485874197 0.3929217670507196 a29.30325949808332,29.30325949808332 0 0,0 -0.028205990730758596,0.5036369122105199 l -8.28596514425591 -0.5356303955966628" fill="#ff5808" stroke="none" /><path d="M 120.92983693683757 101.71520430193887 l 7.07870537742159 0.5801013143175426 a28.102435311582237,28.102435311582237 0 0,0 -0.0436596808398926,0.4817809399656884 l -7.067671100304622 -0.7018636428318016" fill="#ff4706" stroke="none" /><path d="M 120.89721153311464 102.0752229133903 l 3.8689216232947516 0.3842079499482288 a24.887951938489095,24.887951938489095 0 0,0 -0.04600442926688481,0.4259438794022627 l -3.861734892526815 -0.45074815123528295" fill="#ff1902" stroke="none" /><path d="M 120.8583938346157 102.4346265915055 l 3.7861438423221725 0.44192503751103096 a24.81184770597321,24.81184770597321 0 0,0 -0.053166461884088,0.4237890121646486 l -3.777975871191236 -0.5070318039630745" fill="#ff1702" stroke="none" /><path d="M 120.81339534386255 102.79330883721812 l 6.163295978017553 0.8271590885272805 a27.21855364778504,27.21855364778504 0 0,0 -0.06631729177830803,0.46382298423828683 l -6.148144635222644 -0.9331275447459766" fill="#ff3a05" stroke="none" /><path d="M 120.70491114924044 103.5080841355445 l 7.57125333270799 1.282816116003265 a28.679159733689588,28.679159733689588 0 0,0 -0.0866568912297757,0.4860178663784301 l -7.548049999139025 -1.4129527331149134" fill="#ff4f07" stroke="none" /><path d="M 120.5718875245553 104.21870165774334 l 4.154058073389384 0.8518776733370615 a25.240506343282803,25.240506343282803 0 0,0 -0.09094510359744215,0.4248652468232855 l -4.138778931067499 -0.9232567395765161" fill="#ff1e03" stroke="none" /><path d="M 120.49622156327973 104.57218783832717 l 3.2719672488036062 0.7298930105823268 a24.352389220263717,24.352389220263717 0 0,0 -0.0947881196715839,0.4083447387096094 l -3.2589185632014694 -0.786106406640501" fill="#ff1101" stroke="none" /><path d="M 120.41448212921028 104.9243191809786 l 31.78178897299034 7.666306304266986 a53.693338200228716,53.693338200228716 0 0,0 -0.22446036150994672,0.8966075674590733 l -31.645117297185333 -8.212241711123456" fill="#77ff27" stroke="none" /><path d="M 120.32669344350535 105.2749913415812 l 9.129130917658712 2.3691057613798723 a30.431526568925918,30.431526568925918 0 0,0 -0.135944764156536,0.5059010401200589 l -9.086998077160398 -2.5258977346754796" fill="#ff6809" stroke="none" /><path d="M 120.13307415673323 105.97154293290107 l 30.908484993809193 9.167568931331479 a53.239397710305354,53.239397710305354 0 0,0 -0.2681572821737432,0.8763535136203014 l -30.746100939129317 -9.698249417503838" fill="#7bff26" stroke="none" /><path d="M 120.02730092923936 106.31721596034902 l 23.765420968348288 7.4963319908213455 a45.91967550188846,45.91967550188846 0 0,0 -0.2442658849704928,0.7517730928672353 l -23.63286283236155 -7.9043039836663755" fill="#ceff1d" stroke="none" /><path d="M 119.9155931802556 106.66101706037122 l 13.440554597605043 4.4953601263685306 a35.172394665579496,35.172394665579496 0 0,0 -0.19698076715978793,0.5725183140195881 l -13.361182999502025 -4.726051143477419" fill="#ffa80f" stroke="none" /><path d="M 119.79798401119884 107.00284435728193 l 7.825491785284583 2.767994001840686 a29.300609162933917,29.300609162933917 0 0,0 -0.17228163663763288,0.47404507200805424 l -7.776685887641722 -2.9022868708548715" fill="#ff5808" stroke="none" /><path d="M 119.67450827220406 107.3425965602758 l 7.197235107524384 2.6860337759325623 a28.68212019161586,28.68212019161586 0 0,0 -0.17660772448392925,0.46106703952136885 l -7.149933103446948 -2.809524382287075" fill="#ff4f07" stroke="none" /><path d="M 119.41010516605496 108.01547362559984 l 17.157923282303766 7.085426913599947 a39.5633403758426,39.5633403758426 0 0,0 -0.2653551272710542,0.6272211362313534 l -17.0334171738404 -7.379722575497464" fill="#ffe215" stroke="none" /><path d="M 119.12269723197855 108.67885076344098 l 3.395752893608236 1.541165047777076 a24.729118852884476,24.729118852884476 0 0,0 -0.17925712345684236,0.3861038964636935 l -3.3687211533115624 -1.5993890115196001" fill="#ff1602" stroke="none" /><path d="M 118.97047184881838 109.00673069616215 l 18.691401010433452 8.874234472213894 a41.69107317663011,41.69107317663011 0 0,0 -0.3133714347223191,0.6456379730809514 l -18.53587631909642 -9.194661401260122" fill="#fffc17" stroke="none" /><path d="M 118.81262510543309 109.33194174019688 l 14.871240696461433 7.376830772210729 a37.60034433660717,37.60034433660717 0 0,0 -0.2926046803801271,0.5773367938032111 l -14.742057346295036 -7.631721777716635" fill="#ffc812" stroke="none" /><path d="M 118.64920377521936 109.65438752849418 l 11.014846901266283 5.702205940457487 a33.40330620623889,33.40330620623889 0 0,0 -0.2687335619304725,0.5083426242854329 l -10.915060831110917 -5.890963579829054" fill="#ff910d" stroke="none" /><line stroke="#e1ed5e" stroke-width="0.3" x1="174.80103733775053" x2="179.2010983576182" y1="140.37084112569926" y2="142.7455964860345" /><path d="M 175.68104954172406 140.8457921977663 a86.0,86.0 0 0,1 -30.038265399797805,32.042727171017184" fill="none" id="id17" stroke="none" /><text fill="#e1ed5e" style="font-size:6.75px; font-family:Arial;" text-anchor="middle"><textPath startOffset="22.206326154141568" xlink:href="#id17">May</textPath></text><path d="M 118.48025628344425 109.97397251340804 l 20.37726703384896 10.997807507467439 a44.15566413947341,44.15566413947341 0 0,0 -0.36675188010762727,0.6657611926800998 l -20.184938744289823 -11.346939218545344" fill="#e4ff1b" stroke="none" /><path d="M 118.30583269289576 110.29060199501025 l 2.5151288233047024 1.4138766654876975 a23.885293784526752,23.885293784526752 0 0,0 -0.20455820992671964,0.35666448127006317 l -2.490418617225603 -1.4569609926160758" fill="#ff0a01" stroke="none" /><path d="M 118.12598468904814 110.60418214915192 l 3.4874573799033373 2.04025513252495 a25.04042076799393,25.04042076799393 0 0,0 -0.2208554669902743,0.3701664662584261 l -3.451821037214836 -2.0999836926694804" fill="#ff1b02" stroke="none" /><path d="M 117.94076556474637 110.91462005526583 l 6.147724782514258 3.7400901295615063 a28.196026276965878,28.196026276965878 0 0,0 -0.25582571555301337,0.4124725101526222 l -6.082434427293282 -3.8453589710794023" fill="#ff4806" stroke="none" /><path d="M 117.75023020441432 111.22182372390056 l 12.328054023440675 7.793884784399553 a35.58511419349765,35.58511419349765 0 0,0 -0.3317805854885304,0.5149308365586887 l -12.192068574575094 -8.004937220879695" fill="#ffae10" stroke="none" /><path d="M 117.55443506779139 111.5257021239791 l 6.431186992360879 4.22251956792173 a28.693493200893446,28.693493200893446 0 0,0 -0.2746334775380082,0.41053978615976877 l -6.35755040941215 -4.332596268287306" fill="#ff4f07" stroke="none" /><path d="M 117.35343817320211 111.8261652097733 l 5.862743971351125 3.9953914662783583 a28.094710694765777,28.094710694765777 0 0,0 -0.27578181791244033,0.3972842774827851 l -5.7931012462765485 -4.095717005948163" fill="#ff4706" stroke="none" /><path d="M 117.14729908036423 112.12312394758627 l 9.550236205548337 6.752007806358805 a32.696008763629436,32.696008763629436 0 0,0 -0.3288598933115676,0.4567576289106755 l -9.432596519861168 -6.9153990407206125" fill="#ff870c" stroke="none" /><path d="M 116.93607887273984 112.41649034213515 l 3.1491433073207356 2.3087579926357416 a24.904800512011132,24.904800512011132 0 0,0 -0.25644678647279573,0.3435523784152116 l -3.1089352541528474 -2.3626232505602682" fill="#ff1902" stroke="none" /><path d="M 116.498646956653 112.99209946851258 l 21.606772441743924 17.014567163851908 a48.501783780739245,48.501783780739245 0 0,0 -0.5221611688673119,0.651476344112019 l -21.31069336082176 -17.383971341542175" fill="#b0ff20" stroke="none" /><path d="M 115.80600337817218 113.82643327865902 l 2.328648324438861 2.0370045429560273 a24.093863365912497,24.093863365912497 0 0,0 -0.2757498494180557,0.30980787902526874 l -2.293239625372467 -2.0767865917221626" fill="#ff0d01" stroke="none" /><path d="M 115.56566222782051 114.09645910891815 l 2.9054494039329746 2.631211452241984 a24.91980993738521,24.91980993738521 0 0,0 -0.2906760455345909,0.31547143821157553 l -2.8597269504026617 -2.6808341452548943" fill="#ff1902" stroke="none" /><path d="M 115.32070863581623 114.36230785411682 l 2.830024494534835 2.6529897533708424 a24.879096965939087,24.879096965939087 0 0,0 -0.29557960479091827,0.30991403391159067 l -2.7839383383649525 -2.7013109038649405" fill="#ff1802" stroke="none" /><path d="M 115.07121518719521 114.62390073753431 l 5.207009665130973 5.052465347781175 a28.255367374798944,28.255367374798944 0 0,0 -0.3417007351109596,0.3461410406302676 l -5.119268304964477 -5.141346882392107" fill="#ff4906" stroke="none" /><path d="M 114.81725581225074 114.88116024355365 l 9.63221977406473 9.673761982328244 a34.651422221388614,34.651422221388614 0 0,0 -0.4262950752924862,0.41721945439355296 l -9.464274746396448 -9.838131539644369" fill="#ffa20e" stroke="none" /><path d="M 114.29624159901734 115.38237550388516 l 2.6990595152937185 2.904116210125884 a24.964695855801992,24.964695855801992 0 0,0 -0.3172899319683936,0.2898368299814515 l -2.6486700338584606 -2.9501458066939183" fill="#ff1a02" stroke="none" /><path d="M 114.0293411484842 115.62618273729858 l 8.16756907517811 9.09721458316889 a33.22573097078561,33.22573097078561 0 0,0 -0.4288613552333269,0.3784202831386506 l -8.009765367038195 -9.236458008079829" fill="#ff8e0d" stroke="none" /><path d="M 113.75828350139079 115.86535959552629 l 3.114955781466005 3.592010121911358 a25.75452271383807,25.75452271383807 0 0,0 -0.33742658727892616,0.28756225799257845 l -3.0526637176100313 -3.6450967701268833" fill="#ff2503" stroke="none" /><path d="M 113.48314897796784 116.09983520530334 l 1.9598973855318578 2.3402563435239556 a24.05253951902653,24.05253951902653 0 0,0 -0.31970391733902914,0.2630945586381433 l -1.9193233396481375 -2.3736460210192774" fill="#ff0c01" stroke="none" /><path d="M 113.20401910651253 116.32954008644616 l 4.103771476279487 5.075174481871811 a27.52674010138047,27.52674010138047 0 0,0 -0.3710113112196459,0.29475382413312223 l -4.01580267234249 -5.145062220010059" fill="#ff3f05" stroke="none" /><path d="M 112.92097659922987 116.55440617244103 l 25.52815520387379 32.70677311676496 a62.48999537026496,62.48999537026496 0 0,0 -0.8536468775382665,0.6545400243260948 l -24.96137959784203 -33.14135248291843" fill="#32ff47" stroke="none" /><path d="M 112.34349029814194 116.9893568818739 l 5.053905112717032 6.956103624920549 a29.5982169389345,29.5982169389345 0 0,0 -0.4147593518823173,0.29591978502423455 l -4.93341843298583 -7.0420676717890025" fill="#ff5c08" stroke="none" /><path d="M 112.04921762599082 117.19931262002967 l 7.382045681553233 10.537290917420332 a33.86581121899773,33.86581121899773 0 0,0 -0.4803189865828378,0.33036777875402923 l -7.199569810347512 -10.662799485539455" fill="#ff970d" stroke="none" /><path d="M 111.7513745106137 117.40417183066458 l 2.232852135891709 3.3069273905301007 a24.990162581524014,24.990162581524014 0 0,0 -0.3585794413530952,0.23764690098952534 l -2.1755979957986495 -3.3448723126109448" fill="#ff1a02" stroke="none" /><path d="M 111.45004920935366 117.60387380957326 l 6.261395504917001 9.626580141711905 a32.48373279442694,32.48373279442694 0 0,0 -0.471351643805086,0.3008389203075664 l -6.094762059064984 -9.73293349084328" fill="#ff840c" stroke="none" /><path d="M 111.1453310114006 117.79835938074945 l 6.858065292671317 10.951878469176984 a33.92194650825352,33.92194650825352 0 0,0 -0.49755548111074643,0.30563921461868543 l -6.668530611628261 -11.068306150624048" fill="#ff980e" stroke="none" /><line stroke="#e1ed5e" stroke-width="0.3" x1="143.8653032363475" x2="146.44561519142675" y1="172.8068346515853" y2="177.08958963109032" /><path d="M 144.38136562736335 173.6633856474863 a86.0,86.0 0 0,1 -40.68145358897372,12.25698825130547" fill="none" id="id18" stroke="none" /><text fill="#e1ed5e" style="font-size:6.75px; font-family:Arial;" text-anchor="middle"><textPath startOffset="21.466115282336833" xlink:href="#id18">June</textPath></text><path d="M 110.8373102113329 117.98757091392108 l 2.0555868945324973 3.4118258418462717 a24.983213910407496,24.983213910407496 0 0,0 -0.3702656597090221,0.21875947821601846 l -1.9965533637950932 -3.4467038923560396" fill="#ff1a02" stroke="none" /><path d="M 110.5260780823613 118.17145234162733 l 1.9068419630679339 3.291832682959832 a24.804235624237712,24.804235624237712 0 0,0 -0.37129724066934505,0.21083226351478712 l -1.8498959554773897 -3.3241681122692475" fill="#ff1702" stroke="none" /><path d="M 110.21172684928248 118.3499491758327 l 1.904684062313757 3.422619529030172 a24.916905132592664,24.916905132592664 0 0,0 -0.3765741565675188,0.20533825535286265 l -1.8454870938775896 -3.454898436142805" fill="#ff1902" stroke="none" /><path d="M 109.89434966115114 118.52300852407294 l 3.2076004126956903 6.0048827685426325 a27.80788641734465,27.80788641734465 0 0,0 -0.42414852385644697,0.22189446118446482 l -3.1037609863127473 -6.059206648671814" fill="#ff4306" stroke="none" /><path d="M 109.2508944713604 118.85261126421891 l 2.7299832094734637 5.563495764153858 a27.197200451959333,27.197200451959333 0 0,0 -0.42205824253104246,0.20261360485206048 l -2.633812298942188 -5.609663645505479" fill="#ff3a05" stroke="none" /><path d="M 108.92500713936063 119.00905698771935 l 10.540157334191777 22.449108252425763 a45.80035035959467,45.80035035959467 0 0,0 -0.7165181380091442,0.3289183341645858 l -10.152171200415214 -22.627213656924425" fill="#d0ff1d" stroke="none" /><path d="M 108.59647513512805 119.15986991738527 l 1.2466926557369293 2.778635281950751 a24.045497760296325,24.045497760296325 0 0,0 -0.3790936750474952,0.16618352660465713 l -1.1986783060316801 -2.799683361849863" fill="#ff0c01" stroke="none" /><path d="M 108.2653958097858 119.30500536409082 l 2.492164118666464 5.820803115331698 a27.331874201358062,27.331874201358062 0 0,0 -0.43409333864656907,0.18145105076027804 l -2.3915993205224337 -5.862839209111949" fill="#ff3c05" stroke="none" /><path d="M 107.93186726928326 119.44442032107085 l 2.3705326167979126 5.811195651789024 a27.27609909025299,27.27609909025299 0 0,0 -0.4362603243909336,0.17359698646214597 l -2.2701512163651127 -5.851139482657239" fill="#ff3b05" stroke="none" /><path d="M 107.59598834532513 119.57807347666477 l 1.3950667413973714 3.595676813371938 a24.85682550281623,24.85682550281623 0 0,0 -0.4002301390413154,0.15133279225377044 l -1.3329663815957813 -3.619157855732339" fill="#ff1802" stroke="none" /><path d="M 107.2578585660854 119.70592522655815 l 6.337787099219018 17.207824806982497 a39.3378510164858,39.3378510164858 0 0,0 -0.6374238679891343,0.22855752060595888 l -6.040643670600149 -17.314369868628418" fill="#ffdf14" stroke="none" /><path d="M 106.91757812671514 119.82793768551818 l 1.321703842265479 3.7884156771488895 a25.012355217266638,25.012355217266638 0 0,0 -0.4077374400664682,0.13832667740840457 l -1.2562966692617838 -3.810605341455417" fill="#ff1a02" stroke="none" /><path d="M 106.57524785965236 119.94407469862006 l 1.2189227670613374 3.6972426343491884 a24.892990599694507,24.892990599694507 0 0,0 -0.4081012057298424,0.1306611186633814 l -1.1551002162405546 -3.7176765996722763" fill="#ff1902" stroke="none" /><path d="M 106.2309692047433 120.05430185196036 l 1.1888181407554148 3.826197347219524 a25.006628846257023,25.006628846257023 0 0,0 -0.41216285945590464,0.12418128853057281 l -1.1227803068592643 -3.846094004855822" fill="#ff1a02" stroke="none" /><path d="M 105.88484417918355 120.15858648285463 l 1.0887291264463197 3.729451381143589 a24.88511759346952,24.88511759346952 0 0,0 -0.4122265137533222,0.1164993304060399 l -1.0243714445883916 -3.747639504888148" fill="#ff1902" stroke="none" /><path d="M 104.83641907484287 120.43548508189849 l 0.5169145614065126 2.1841365780698183 a23.244471709658338,23.244471709658338 0 0,0 -0.3901527578886769,0.08879749746713801 l -0.47924165412497366 -2.192710809114641" fill="#ff0000" stroke="none" /><path d="M 104.48393922423573 120.51570834832081 l 2.1204749298725667 9.70197030906603 a30.930993998901464,30.930993998901464 0 0,0 -0.5211261801565716,0.10920705786675186 l -1.9531572882866168 -9.737033347659324" fill="#ff6f0a" stroke="none" /><path d="M 104.13013068566511 120.58985236759428 l 1.5371869740002257 7.663305416922108 a28.815957632054033,28.815957632054033 0 0,0 -0.4871713417385164,0.09336754712175231 l -1.405048017690005 -7.688630162392328" fill="#ff5107" stroke="none" /><path d="M 103.7750983002368 120.6578951692458 l 1.1553627650735843 6.322315602177269 a27.427016235583398,27.427016235583398 0 0,0 -0.4651504781788482,0.08087237296356029 l -1.0463633154226861 -6.341266553661835" fill="#ff3d05" stroke="none" /><path d="M 103.06178313531738 120.77559828337769 l 2.8696810124800147 19.472097559431276 a40.682419883677866,40.682419883677866 0 0,0 -0.6936767334132111,0.0961372744542809 l -2.534075687879973 -19.51860939937816" fill="#fff016" stroke="none" /><path d="M 102.34483914955558 120.86867818915974 l 0.4467931788726397 3.9763849340249857 a25.001407413426932,25.001407413426932 0 0,0 -0.42808053070720753,0.04437229732349074 l -0.3782800515598295 -3.9834865998042353" fill="#ff1a02" stroke="none" /><path d="M 101.98527174616119 120.90594882070398 l 0.35683612457223707 3.7576708438582878 a24.774575762994086,24.774575762994086 0 0,0 -0.4248906779326191,0.036661355538759245 l -0.2921011288980763 -3.7632564516757103" fill="#ff1702" stroke="none" /><path d="M 101.62511606390274 120.93702456842531 l 0.3063429234025148 3.9467392244210666 a24.958610424416957,24.958610424416957 0 0,0 -0.4286192551550448,0.029560093325159634 l -0.23836090746853963 -3.9514276622625113" fill="#ff1a02" stroke="none" /><path d="M 101.26447882468166 120.96189622390904 l 0.45838826234587454 7.598930878080329 a28.61274393953318,28.61274393953318 0 0,0 -0.4918829503619704,0.025424730046444084 l -0.32751724357042455 -7.605695414888975" fill="#ff4e07" stroke="none" /><path d="M 100.90346689309514 120.98055641714683 l 0.3593744883340751 8.345493105503676 a29.35322723244584,29.35322723244584 0 0,0 -0.5049868386548596,0.017392767776095087 l -0.2156672980045632 -8.350442671705865" fill="#ff5908" stroke="none" /><line stroke="#e1ed5e" stroke-width="0.3" x1="102.19456741930631" x2="102.32365962044197" y1="184.97166512339345" y2="189.96999836594603" /><path d="M 102.22038585953345 185.97133177190398 a86.0,86.0 0 0,1 -42.740103519485714,-10.115201625700543" fill="none" id="id19" stroke="none" /><text fill="#e1ed5e" style="font-size:6.75px; font-family:Arial;" text-anchor="middle"><textPath startOffset="22.20632615414155" xlink:href="#id19">July</textPath></text><path d="M 99.81925306533755 120.99922214144158 l -0.059892012375728755 6.958268336470946 a27.958526086426676,27.958526086426676 0 0,0 -0.4812065875629519,-0.00828440780066654 l 0.17965828983134863 -6.95620645139112" fill="#ff4506" stroke="none" /><path d="M 99.45781275523022 120.99299961872073 l -0.437831072801028 16.952423047648153 a37.95807604755747,37.95807604755747 0 0,0 -0.6530228745508914,-0.022491428172258042 l 0.7295742990265623 -16.9423748210498" fill="#ffcd13" stroke="none" /><path d="M 99.09653310690486 120.98055641714683 l -0.3452228402198408 8.016859644858435 a29.024289213056143,29.024289213056143 0 0,0 -0.49895784341575883,-0.025790421205017466 l 0.48316875204908855 -8.009729416891217" fill="#ff5407" stroke="none" /><path d="M 98.73552117531835 120.96189622390904 l -0.40266395052181997 6.675161164579154 a27.687295030889214,27.687295030889214 0 0,0 -0.4754795067351969,-0.03279185063258316 l 0.5175062180359469 -6.667240969430286" fill="#ff4106" stroke="none" /><path d="M 98.37488393609728 120.93702456842531 l -0.8599183730684253 11.078674627421382 a32.11199762007763,32.11199762007763 0 0,0 -0.5507294481686213,-0.04751925413665207 l 1.0504921389785884 -11.062231121006066" fill="#ff7f0b" stroke="none" /><path d="M 97.2962882734958 120.8252237178851 l -0.9007045305351313 6.937638050769343 a27.995862375347958,27.995862375347958 0 0,0 -0.47735799436573495,-0.06615746832313697 l 1.0199911160876973 -6.921106016953601" fill="#ff4606" stroke="none" /><path d="M 96.22490169976321 120.6578951692458 l -2.5339319529384485 13.866049699029386 a35.09567825250262,35.09567825250262 0 0,0 -0.5933382080100139,-0.11371467972195318 l 2.7722377755201575 -13.820377820958964" fill="#ffa70f" stroke="none" /><path d="M 95.86986931433489 120.58985236759428 l -0.47995402661868825 2.3927045663737427 a23.440366982569067,23.440366982569067 0 0,0 -0.3949239040791246,-0.0827601438729785 l 0.5210693921271996 -2.384088441774223" fill="#ff0300" stroke="none" /><path d="M 95.51606077576429 120.51570834832081 l -1.466155160673206 6.708211277079459 a27.866564606344625,27.866564606344625 0 0,0 -0.4677334537799283,-0.10645461127092332 l 1.581408763845997 -6.681979932230849" fill="#ff4406" stroke="none" /><path d="M 95.16358092515715 120.4354850818985 l -2.671974416585255 11.28998386706525 a32.6018611869596,32.6018611869596 0 0,0 -0.5449893467114278,-0.13394512189674002 l 2.865917048039893 -11.242317486854478" fill="#ff860c" stroke="none" /><path d="M 94.46302465271185 120.25689768951611 l -1.6340322338545932 5.978069560807343 a27.197368555695807,27.197368555695807 0 0,0 -0.45052937286181927,-0.12732410098701957 l 1.7366927748210264 -5.949056666481802" fill="#ff3a05" stroke="none" /><path d="M 94.11515582081647 120.15858648285463 l -6.795880037065771 23.279347979830867 a45.251021171164,45.251021171164 0 0,0 -0.7458338504511484,-0.22471362097256356 l 7.195588861957165 -23.158918989752575" fill="#d6ff1c" stroke="none" /><path d="M 93.08242187328487 119.8279376855182 l -1.267723534000901 3.633691267982974 a24.84848479140498,24.84848479140498 0 0,0 -0.4026406344049925,-0.14437260623002537 l 1.3300837290356202 -3.6113311207129906" fill="#ff1802" stroke="none" /><path d="M 91.7346041902142 119.30500536409082 l -1.9690816382416645 4.599069719514524 a26.002871653662112,26.002871653662112 0 0,0 -0.40995300971694015,-0.17971135205148936 l 2.047955322616348 -4.564493814168582" fill="#ff2904" stroke="none" /><path d="M 91.40352486487194 119.15986991738527 l -2.760691563632673 6.153044173312444 a27.743987730434185,27.743987730434185 0 0,0 -0.4340375187849365,-0.19924533667820354 l 2.8661970781850292 -6.104611766300166" fill="#ff4206" stroke="none" /><path d="M 91.07499286063937 119.00905698771935 l -3.234496044661812 6.8890387065767476 a28.61057284070296,28.61057284070296 0 0,0 -0.44399158333530586,-0.2131429413250355 l 3.35260029599736 -6.83234148875215" fill="#ff4e07" stroke="none" /><path d="M 90.10565033884886 118.52300852407294 l -11.751910265868105 22.000509531567285 a45.9425302354352,45.9425302354352 0 0,0 -0.6943386219886851,-0.3786087780500794 l 12.12887169972543 -21.79496010175744" fill="#ceff1d" stroke="none" /><line stroke="#e1ed5e" stroke-width="0.3" x1="58.666819895761336" x2="56.23545636021788" y1="174.27360380694188" y2="178.64263932499728" /><path d="M 58.180547188652646 175.14741091055294 a86.0,86.0 0 0,1 -31.652253787137756,-30.449443065178592" fill="none" id="id20" stroke="none" /><text fill="#e1ed5e" style="font-size:6.75px; font-family:Arial;" text-anchor="middle"><textPath startOffset="22.20632615414155" xlink:href="#id20">August</textPath></text><path d="M 89.4739219176387 118.17145234162733 l -1.976355930374052 3.4118365185856856 a24.942919120788503,24.942919120788503 0 0,0 -0.36966846765380384,-0.21840664662343448 l 2.034792269056238 -3.3773112996685017" fill="#ff1902" stroke="none" /><path d="M 89.1626897886671 117.98757091392108 l -4.008571402093688 6.653354102872725 a28.7676100252199,28.7676100252199 0 0,0 -0.42195344076207475,-0.25919826659786555 l 4.122504042788071 -6.5833673694464805" fill="#ff5107" stroke="none" /><path d="M 88.8546689885994 117.79835938074946 l -2.87717818928913 4.594664022364165 a26.421170704868896,26.421170704868896 0 0,0 -0.38338150119039366,-0.24469221312762854 l 2.955841492526447 -4.544457380412732" fill="#ff2f04" stroke="none" /><path d="M 88.54995079064634 117.60387380957326 l -4.012424282804805 6.168900190163498 a28.358999808495778,28.358999808495778 0 0,0 -0.40691829336801694,-0.26968325626797757 l 4.118017274912784 -6.098918912804202" fill="#ff4b07" stroke="none" /><path d="M 88.24862548938628 117.40417183066458 l -14.475295482189122 21.4383883046295 a46.86771486615622,46.86771486615622 0 0,0 -0.6647250574448594,-0.4572039557972513 l 14.842177424256871 -21.186043559467144" fill="#c3ff1e" stroke="none" /><path d="M 87.95078237400918 117.19931262002967 l -6.422387836811953 9.167454651506606 a32.19326986692719,32.19326986692719 0 0,0 -0.4511237880486939,-0.32186484469328336 l 6.579238952709534 -9.055545544969103" fill="#ff800b" stroke="none" /><path d="M 87.65650970185807 116.9893568818739 l -4.629044833541162 6.37133361793655 a28.875401459099248,28.875401459099248 0 0,0 -0.3996012213910457,-0.29561543046912203 l 4.738031025350772 -6.290708238727661" fill="#ff5207" stroke="none" /><path d="M 87.36589467227662 116.77436683061367 l -4.809006493852202 6.384942734462406 a28.993374580255633,28.993374580255633 0 0,0 -0.3960650586239311,-0.30368579787232014 l 4.91820028096962 -6.301217594762719" fill="#ff5407" stroke="none" /><path d="M 86.51685102203217 116.09983520530335 l -2.541490211541445 3.034719385550826 a24.958370149998476,24.958370149998476 0 0,0 -0.3269956798396785,-0.27867281237915137 l 2.59335136795818 -2.990522182948723" fill="#ff1a02" stroke="none" /><path d="M 86.24171649860922 115.8653595955263 l -1.9990439412378327 2.30519679084897 a24.051247109550467,24.051247109550467 0 0,0 -0.3104416405322373,-0.2739286533390762 l 2.038427934676658 -2.2704449957376047" fill="#ff0c01" stroke="none" /><path d="M 85.97065885151581 115.62618273729859 l -2.641641125281152 2.942316856730391 a24.954174543463715,24.954174543463715 0 0,0 -0.31715621087301016,-0.2897146789313134 l 2.6918968856210164 -2.8964094112125016" fill="#ff1a02" stroke="none" /><path d="M 85.70375840098266 115.38237550388516 l -2.46488522242767 2.652150902931445 a24.620713130263482,24.620713130263482 0 0,0 -0.3079513843363674,-0.29118725524629147 l 2.5101724411548543 -2.6093290109392226" fill="#ff1502" stroke="none" /><path d="M 85.44109423537348 115.13401014063109 l -4.756274655555229 4.9441565205876605 a27.86052711525481,27.86052711525481 0 0,0 -0.34275088128864556,-0.335453876838816 l 4.840675489219669 -4.861552540826275" fill="#ff4406" stroke="none" /><path d="M 85.18274418774928 114.88116024355367 l -5.244724555203542 5.267344205177036 a28.433172313068432,28.433172313068432 0 0,0 -0.3438509842054846,-0.3483192316106013 l 5.334616164464561 -5.17628447958577" fill="#ff4c07" stroke="none" /><path d="M 84.9287848128048 114.62390073753433 l -17.770784230461036 17.243346431361434 a45.7615380846495,45.7615380846495 0 0,0 -0.5436763786163038,-0.570042509389676 l 18.064967160456295 -16.934896805389258" fill="#d0ff1d" stroke="none" /><path d="M 84.67929136418377 114.36230785411682 l -2.6879395972365554 2.5197931052962326 a24.68434208128,24.68434208128 0 0,0 -0.2879294409081771,-0.3124905413506031 l 2.7309154461404614 -2.4731513091442854" fill="#ff1602" stroke="none" /><path d="M 84.43433777217949 114.09645910891817 l -5.019845682578571 4.546035264151835 a27.772391549505592,27.772391549505592 0 0,0 -0.3178499301440449,-0.3571077660208122 l 5.097354462370953 -4.458953328390159" fill="#ff4206" stroke="none" /><path d="M 84.19399662182784 113.82643327865904 l -5.554648337480361 4.858974959517434 a28.379956355581704,28.379956355581704 0 0,0 -0.31847377586891484,-0.37045695056482003 l 5.637464622920055 -4.762640909791084" fill="#ff4b07" stroke="none" /><path d="M 83.95833913139862 113.55231037782056 l -8.635063887449027 7.2950716820148065 a32.304087720203725,32.304087720203725 0 0,0 -0.3551972892564348,-0.42785801659925 l 8.759357176598998 -7.145352408301796" fill="#ff820b" stroke="none" /><path d="M 83.72743513129214 113.27417163493432 l -16.97975591105469 13.851055202493606 a42.912641123824436,42.912641123824436 0 0,0 -0.46198950021498414,-0.5764029356512298 l 17.215663323324534 -13.556724433264117" fill="#f3ff19" stroke="none" /><path d="M 83.50135304334701 112.99209946851258 l -18.09292167690662 14.24753428083929 a44.02924331996968,44.02924331996968 0 0,0 -0.46376040311543776,-0.599472836558162 l 18.335488897240126 -13.933983450167874" fill="#e5ff1a" stroke="none" /><path d="M 83.28015986056508 112.70617746262583 l -3.256105560221141 2.4744647520661522 a25.089645367085126,25.089645367085126 0 0,0 -0.25835014920228644,-0.34610224383445337 l 3.2982169761185123 -2.418049628722391" fill="#ff1c02" stroke="none" /><path d="M 83.06392112726016 112.41649034213515 l -3.168503808764704 2.322951920344999 a24.928806690382075,24.928806690382075 0 0,0 -0.25073655833194514,-0.34825114948394925 l 3.2080201594722566 -2.2680671654099114" fill="#ff1902" stroke="none" /><path d="M 82.24976979558568 111.22182372390057 l -27.382461540888524 17.31138993689894 a53.39573153342281,53.39573153342281 0 0,0 -0.48446547371018117,-0.7811126007858541 l 27.676391654266663 -16.837481004747822" fill="#7aff26" stroke="none" /><path d="M 82.05923443525364 110.91462005526583 l -3.5407195409621184 2.154066858094141 a25.14447812117407,25.14447812117407 0 0,0 -0.22177324850613472,-0.3717047208697033 l 3.577273665166485 -2.0928000433383267" fill="#ff1c02" stroke="none" /><line stroke="#e1ed5e" stroke-width="0.3" x1="26.63291911575756" x2="22.317208475507996" y1="142.92168965132927" y2="145.44649492493687" /><path d="M 25.769776987707644 143.4266507060508 a86.0,86.0 0 0,1 -11.730757126820373,-40.83630448921669" fill="none" id="id21" stroke="none" /><text fill="#e1ed5e" style="font-size:6.75px; font-family:Arial;" text-anchor="middle"><textPath startOffset="21.46611528233685" xlink:href="#id21">September</textPath></text><path d="M 81.87401531095188 110.60418214915194 l -6.54091168235115 3.826606945280934 a28.578023907984853,28.578023907984853 0 0,0 -0.24474764541717695,-0.42673814962527995 l 6.605811323920705 -3.713448949797347" fill="#ff4e07" stroke="none" /><path d="M 81.69416730710424 110.29060199501025 l -5.903009684698073 3.318369847305188 a27.771787192546995,27.771787192546995 0 0,0 -0.23066927800344922,-0.41873174199724505 l 5.95925537215304 -3.2162675869101203" fill="#ff4206" stroke="none" /><path d="M 81.18737489456691 109.33194174019688 l -13.02299457828885 6.460014272670197 a35.53719959927783,35.53719959927783 0 0,0 -0.2671157726561295,-0.5503376087500574 l 13.132263607559699 -6.234887707954854" fill="#ffad10" stroke="none" /><path d="M 81.02952815118164 109.00673069616217 l -6.967840126201461 3.308165450535074 a28.713284298689963,28.713284298689963 0 0,0 -0.20813765257881275,-0.4483099868599226 l 7.0237523956201 -3.187735396396324" fill="#ff5007" stroke="none" /><path d="M 80.87730276802145 108.67885076344099 l -3.5650196763913966 1.6179869065955181 a24.915002799867754,24.915002799867754 0 0,0 -0.1738817040126544,-0.3920573391193066 l 3.592342465135331 -1.5563812309835154" fill="#ff1902" stroke="none" /><path d="M 80.73074385275274 108.34839909993369 l -3.6514736649882544 1.581999804521481 a24.97944510046423,24.97944510046423 0 0,0 -0.1675395396552872,-0.3960139813651523 l 3.678164185835848 -1.5189112974901697" fill="#ff1a02" stroke="none" /><path d="M 80.45479744820244 107.68017299344265 l -6.762216269673469 2.6571733207946853 a28.265544641290123,28.265544641290123 0 0,0 -0.17404269583446896,-0.45437055912023183 l 6.806953245101448 -2.5403791948412957" fill="#ff4906" stroke="none" /><path d="M 80.32549172779594 107.34259656027581 l -3.675129840525326 1.3715715458938496 a24.92272709351866,24.92272709351866 0 0,0 -0.14654057836368248,-0.403216734982776 l 3.698194679894233 -1.3081070139049564" fill="#ff1902" stroke="none" /><path d="M 80.20201598880116 107.00284435728193 l -7.107725811687402 2.5141093944376935 a28.5392647029619,28.5392647029619 0 0,0 -0.15983234320031425,-0.464547605201548 l 7.149948985830944 -2.3913890861468485" fill="#ff4d07" stroke="none" /><path d="M 79.86692584326677 105.97154293290107 l -16.489652526415437 4.890890841783296 a38.199693417853666,38.199693417853666 0 0,0 -0.18155288913310577,-0.632009424573788 l 16.57139805243465 -4.606323941704912" fill="#ffd013" stroke="none" /><path d="M 79.76711848015287 105.62410040840567 l -7.52547195825065 2.091842917793289 a28.810796053357098,28.810796053357098 0 0,0 -0.12870458094715378,-0.47895762498368394 l 7.560364615539579 -1.961994359634066" fill="#ff5107" stroke="none" /><path d="M 79.67330655649465 105.27499134158121 l -28.223051488508638 7.3241795400054 a50.15791901451891,50.15791901451891 0 0,0 -0.20968084704664325,-0.8375707539119994 l 28.34494364985034 -6.837280946696009" fill="#9eff22" stroke="none" /><path d="M 79.58551787078972 104.9243191809786 l -3.9798027167736296 0.9599958857970432 a25.093949409211845,25.093949409211845 0 0,0 -0.09767453444172647,-0.42077933799489137 l 3.9957378171459115 -0.8913478904535777" fill="#ff1c02" stroke="none" /><path d="M 79.50377843672027 104.57218783832718 l -3.838264715137106 0.8562196303669364 a24.93260576194617,24.93260576194617 0 0,0 -0.08983569438486687,-0.4196824563234714 l 3.8524344482464135 -0.7900233546273012" fill="#ff1902" stroke="none" /><path d="M 79.4281124754447 104.21870165774334 l -11.514068989065816 2.361203942689415 a32.75368319906314,32.75368319906314 0 0,0 -0.10850837787869573,-0.5532818810872668 l 11.553007299920178 -2.1626583345341936" fill="#ff880c" stroke="none" /><path d="M 79.35854240842038 103.8639653848113 l -16.30845802293301 3.0528521060434888 a37.5917361679585,37.5917361679585 0 0,0 -0.11358711421445523,-0.6370568585505003 l 16.358591579486657 -2.771676496759775" fill="#ffc812" stroke="none" /><path d="M 79.29508885075956 103.50808413554451 l -25.33283466170034 4.292204624521812 a46.69388122755713,46.69388122755713 0 0,0 -0.1274481597155159,-0.793619812207299 l 25.402964575777144 -3.855505582621299" fill="#c5ff1e" stroke="none" /><path d="M 79.23777060512086 103.15116336523772 l -16.73609474474237 2.540101432931245 a37.92775775448634,37.92775775448634 0 0,0 -0.09240998658670664,-0.6463152309558767 l 16.777338782345677 -2.2516407299949677" fill="#ffcd13" stroke="none" /><path d="M 79.18660465613746 102.79330883721812 l -7.794981386852631 1.0461431224515174 a28.864868101502502,28.864868101502502 0 0,0 -0.061851214302686135,-0.49301503394498386 l 7.811834110402165 -0.9118103342191249" fill="#ff5207" stroke="none" /><path d="M 79.1416061653843 102.43462659150553 l -28.748263431275873 3.355545358110737 a49.94343336517581,49.94343336517581 0 0,0 -0.09231853039865238,-0.8547549356736419 l 28.801764263175578 -2.8601941005523126" fill="#a0ff22" stroke="none" /><path d="M 79.10278846688536 102.07522291339032 l -12.966955372384557 1.2876992158997083 a34.030736775027016,34.030736775027016 0 0,0 -0.05286983458446836,-0.5834142190673558 l 12.987199803246101 -1.0643036082837862" fill="#ff990e" stroke="none" /><path d="M 79.07016306316243 101.71520430193888 l -26.73631244660148 2.1910461254325435 a47.8259405495142,47.8259405495142 0 0,0 -0.060177425449193994,-0.8210731590670831 l 26.77006643071501 -1.7304998298686998" fill="#b8ff1f" stroke="none" /><path d="M 79.04373962182676 101.35467743843564 l -35.556813068506514 2.2985022889269024 a56.63102676545987,56.63102676545987 0 0,0 -0.05451046209122906,-0.9733209186961583 l 35.59110988148527 -1.6861096538953064" fill="#57ff2a" stroke="none" /><path d="M 79.0095281055655 100.63252640178507 l -27.69129581555745 0.8344488771414803 a48.70386559441249,48.70386559441249 0 0,0 -0.01803883874243631,-0.8381939541052107 l 27.701556716984893 -0.3576651072461407" fill="#aeff20" stroke="none" /><line stroke="#e1ed5e" stroke-width="0.3" x1="15.007084014347285" x2="10.007500721073583" y1="101.09737516637583" y2="101.16192664675087" /><path d="M 14.007167355692545 101.11028546245083 a86.0,86.0 0 0,1 10.666146001902534,-42.60595125391555" fill="none" id="id22" stroke="none" /><text fill="#e1ed5e" style="font-size:6.75px; font-family:Arial;" text-anchor="middle"><textPath startOffset="22.20632615414155" xlink:href="#id22">October</textPath></text><path d="M 79.00175016825051 100.2711162175752 l -13.174708042715803 0.1701035581926466 a34.17580613212377,34.17580613212377 0 0,0 -0.0025317806777697374,-0.58829666626245 l 13.175684120683076 0.05670258627347881" fill="#ff9b0e" stroke="none" /><path d="M 79.00019446554 99.90962569577889 l -38.42651430433236 -0.1653715072836394 a59.42687014728731,59.42687014728731 0 0,0 0.013206894285420575,-1.0228885169139477 l 38.417974402929225 0.826796282258059" fill="#3bff2e" stroke="none" /><path d="M 79.00486145842228 99.54816195383935 l -8.701055827962897 -0.18725611441219103 a29.703070571569086,29.703070571569086 0 0,0 0.01540076704708484,-0.5110764814595259 l 8.696543366460167 0.33700274329671137" fill="#ff5e08" stroke="none" /><path d="M 79.03285615573316 98.82574320788736 l -30.861731304961268 -1.7283993409104872 a51.910092581894446,51.910092581894446 0 0,0 0.057643460948379716,-0.8917188272716854 l 30.827407253008474 2.259377232435184" fill="#8aff24" stroke="none" /><path d="M 79.05617556472873 98.46500227214037 l -9.028603550297941 -0.6617170602382035 a30.052820087478977,30.052820087478977 0 0,0 0.04225357265536208,-0.5156006107703425 l 9.015875493823081 0.8170315882163244" fill="#ff6309" stroke="none" /><path d="M 79.08570108090925 98.10471618934814 l -41.49468747214462 -3.7603081842837613 a62.6647213605437,62.6647213605437 0 0,0 0.10659828406289823,-1.0734301730941112 l 41.42381206239949 4.474013888082303" fill="#32ff49" stroke="none" /><path d="M 79.12142395522702 97.74499172005258 l -17.586332508911976 -1.8994267298910639 a38.688609697097135,38.688609697097135 0 0,0 0.07721076072320322,-0.6614946460594381 l 17.551031395185184 2.2018651142753636" fill="#ffd614" stroke="none" /><path d="M 79.16333360222342 97.38593545837743 l -18.545442144665127 -2.326618941514313 a39.69081539259683,39.69081539259683 0 0,0 0.09088062879680801,-0.6771662449364347 l 18.502645516810485 2.645503528515407" fill="#ffe315" stroke="none" /><path d="M 79.21141760316559 97.0276538004421 l -36.54104956469687 -5.224629930419052 a57.91266803144232,57.91266803144232 0 0,0 0.1495914731386606,-0.9856209027704572 l 36.44570219811891 5.852849945581601" fill="#4aff2c" stroke="none" /><path d="M 79.26566170972629 96.67025291283419 l -15.43146248187539 -2.4781532224655707 a36.62918032794888,36.62918032794888 0 0,0 0.10533181019261427,-0.6216743062487278 l 15.386518810162553 2.743413317030126" fill="#ffbc11" stroke="none" /><path d="M 79.32604984820605 96.31383870115002 l -22.820723414625533 -4.0689305548825105 a44.180630125760054,44.180630125760054 0 0,0 0.1399353633343376,-0.7475403064380972 l 22.747302327381334 4.461148938783181" fill="#e3ff1b" stroke="none" /><path d="M 79.3925641242962 95.95851677861259 l -12.734789284667071 -2.4975177665148696 a33.977382367755396,33.977382367755396 0 0,0 0.11749816335770694,-0.5729627731555503 l 12.68991182539437 2.7163561958338223" fill="#ff980e" stroke="none" /><path d="M 79.46518482838121 95.60439243477599 l -21.872046407093194 -4.681850401401517 a43.367524163732156,43.367524163732156 0 0,0 0.16253655111954698,-0.7286194884540168 l 21.78821546897161 5.057648059405493" fill="#edff1a" stroke="none" /><path d="M 79.54389044137918 95.25157060432595 l -15.041969387773392 -3.491657561035664 a36.441907770293454,36.441907770293454 0 0,0 0.14709897499244912,-0.6098202179517763 l 14.97963761252013 3.750063010646837" fill="#ffb911" stroke="none" /><path d="M 79.62865764111835 94.90015583598534 l -21.083198910314014 -5.278053209618127 a42.733824375277955,42.733824375277955 0 0,0 0.18478038126120522,-0.7120341856608022 l 20.9892221971825 5.640183820827793" fill="#f5ff19" stroke="none" /><path d="M 79.71946130924805 94.55025226153421 l -8.990969945651859 -2.4160363230525874 a30.30992868275179,30.30992868275179 0 0,0 0.13973343236573768,-0.5026955025895442 l 8.94804974271976 2.570443129061074" fill="#ff6609" stroke="none" /><path d="M 79.81627453868168 94.20196356495316 l -12.653280230138776 -3.6348185540773166 a34.165006893408204,34.165006893408204 0 0,0 0.16723624922763067,-0.5638374948027236 l 12.58883808379944 3.8520854356265795" fill="#ff9b0e" stroke="none" /><path d="M 79.91906864156998 93.8553929516997 l -11.482338332601072 -3.5135052149785078 a33.00786460949661,33.00786460949661 0 0,0 0.17092496518115874,-0.541878849083019 l 11.42015788365171 3.710634230487941" fill="#ff8b0c" stroke="none" /><path d="M 80.02781315780177 93.51064311812611 l -14.377134646431482 -4.671414222018107 a36.1170139735099,36.1170139735099 0 0,0 0.19720355062311223,-0.5896135158214062 l 14.294593802036598 4.918200840761835" fill="#ffb510" stroke="none" /><path d="M 80.14247586403 93.16781622104843 l -25.898006105594543 -8.910473229707526 a48.38801295133962,48.38801295133962 0 0,0 0.27776313747709647,-0.7852737936341155 l 25.74078988730764 9.354944649768253" fill="#b2ff20" stroke="none" /><path d="M 80.2630227832202 92.82701384747504 l -3.6852225605394735 -1.3393160515607603 a24.921049962277632,24.921049962277632 0 0,0 0.1499955411882657,-0.401913477293297 l 3.6616224308495804 1.4025526658833987" fill="#ff1902" stroke="none" /><path d="M 80.38941819471856 92.48833698450439 l -18.96858693511103 -7.265752457089941 a41.312519515869354,41.312519515869354 0 0,0 0.26008483574459257,-0.6618875381608305 l 18.84070854948475 7.591189000146535" fill="#fff817" stroke="none" /><path d="M 80.52162464483688 92.15188598940014 l -11.664276531546294 -4.699702639546597 a33.57547422185513,33.57547422185513 0 0,0 0.22060415691083127,-0.534210464124339 l 11.581650687749264 4.899787674124248" fill="#ff930d" stroke="none" /><path d="M 80.65960295795068 91.81776055985345 l -36.33984989124459 -15.374108007331786 a60.45817896380031,60.45817896380031 0 0,0 0.4137334277662816,-0.9549537942394777 l 36.06982575363563 15.997360946157864" fill="#31ff2f" stroke="none" /><path d="M 80.803312248108 91.48605970444005 l -3.5298286854718217 -1.5655175033359574 a24.861416268939543,24.861416268939543 0 0,0 0.17686847559948585,-0.3897062411785988 l 3.502357892908984 1.626045753356627" fill="#ff1802" stroke="none" /><path d="M 80.95270993114464 91.15688171328213 l -20.39876034668497 -9.470567728849927 a43.490021716046,43.490021716046 0 0,0 0.32108435793891527,-0.6762855445396562 l 20.232717794904303 9.820295689030115" fill="#ecff1a" stroke="none" /><path d="M 81.10775173730289 90.83032412892265 l -19.22211401620569 -9.329781857330696 a42.366667890838485,42.366667890838485 0 0,0 0.32408480862815986,-0.6533351982712843 l 19.05866919462412 9.659276644100942" fill="#f9ff18" stroke="none" /><path d="M 81.26839172434947 90.50648371742162 l -9.911289605277343 -5.023219996083468 a32.111543581732086,32.111543581732086 0 0,0 0.2541255061881789,-0.49088959143152605 l 9.823354665929049 5.193082309775329" fill="#ff7f0b" stroke="none" /><path d="M 81.43458229118936 90.18545643968196 l -20.69481622319349 -10.940242685674589 a44.40863790426963,44.40863790426963 0 0,0 0.3630763549001273,-0.6727253438881208 l 20.503431769074894 11.294849012895183" fill="#e1ff1b" stroke="none" /><path d="M 81.6062741919709 89.86733742301443 l -22.987509869663974 -12.663268085292206 a47.24469410391134,47.24469410391134 0 0,0 0.3985255499992595,-0.7089324847728248 l 22.766126678372284 13.057084079999814" fill="#bfff1e" stroke="none" /><line stroke="#e1ed5e" stroke-width="0.3" x1="26.266209847984243" x2="21.928928074336255" y1="57.711370442889674" y2="55.22380399835377" /><path d="M 25.398753493254645 57.213857153982495 a86.0,86.0 0 0,1 29.58750427330803,-30.492523968695096" fill="none" id="id23" stroke="none" /><text fill="#e1ed5e" style="font-size:6.75px; font-family:Arial;" text-anchor="middle"><textPath startOffset="21.46611528233685" xlink:href="#id23">November</textPath></text><path d="M 81.78341655067845 89.55222093294921 l -13.90883662363574 -7.977151836826075 a37.03404776251987,37.03404776251987 0 0,0 0.32191462544056715,-0.5502564450369279 l 13.769462323724847 8.215387694216895" fill="#ffc111" stroke="none" /><path d="M 81.96595687620814 89.24020034530311 l -13.185554343436655 -7.867005867604149 a36.3541077456373,36.3541077456373 0 0,0 0.32525535775266295,-0.5346342880073862 l 13.048183187397775 8.09280792881861" fill="#ffb811" stroke="none" /><path d="M 82.15384107792192 88.93136811851018 l -42.90408665903329 -26.610182253441447 a71.48626002792452,71.48626002792452 0 0,0 0.6575796516657302,-1.040133090840266 l 42.4396794111216 27.34476299199593" fill="#3dffae" stroke="none" /><path d="M 82.34701348167596 88.62581576622439 l -12.298945662588107 -7.924465002126651 a35.63083080283635,35.63083080283635 0 0,0 0.3366322245845423,-0.5127139730516793 l 12.160716802645645 8.134997039155998" fill="#ffaf10" stroke="none" /><path d="M 82.54541684631803 88.32363383020206 l -3.041105930372528 -2.034369202147528 a24.658822669984612,24.658822669984612 0 0,0 0.2390444286200903,-0.35076820246676604 l 3.005637036083697 2.08641542788471" fill="#ff1502" stroke="none" /><path d="M 82.7489923806493 88.02491185347247 l -18.03440451382593 -12.518896779162619 a42.95364486220075,42.95364486220075 0 0,0 0.42685160076987044,-0.6037513179753041 l 17.816240293252182 12.827474597469708" fill="#f2ff19" stroke="none" /><path d="M 83.17141714833178 87.43820079747576 l -21.339700729522818 -15.929150895772088 a47.62931984647511,47.62931984647511 0 0,0 0.4960799143421648,-0.6527830174403573 l 21.062344874956544 16.294118689093473" fill="#baff1f" stroke="none" /><path d="M 83.39014120810768 87.1503855733568 l -42.44870226336031 -32.83889789971026 a74.6682917476512,74.6682917476512 0 0,0 0.7952027980181455,-1.0098267993745629 l 41.8771453847482 33.56471709303787" fill="#41ffd0" stroke="none" /><path d="M 83.84228863543731 86.58626213691792 l -11.969803274212031 -9.937038716082258 a36.55702185086383,36.55702185086383 0 0,0 0.40611262858694375,-0.48070925772994766 l 11.796980032137963 10.141606923441323" fill="#ffbb11" stroke="none" /><path d="M 84.07557802195018 86.31012108654704 l -16.06653908742008 -13.812053898610392 a42.18741397966528,42.18741397966528 0 0,0 0.47814037056048403,-0.5465970984711147 l 15.826406853281751 14.086566553284449" fill="#fcff18" stroke="none" /><path d="M 84.31358615837235 86.03803664274999 l -2.796742065994157 -2.4892885422585804 a24.7441051841957,24.7441051841957 0 0,0 0.2859197371528846,-0.31571971502924606 l 2.7534786882252273 2.5370610445573827" fill="#ff1602" stroke="none" /><path d="M 84.5562425177563 85.77008943001954 l -13.249980629519237 -12.208559971808093 a39.0169620987521,39.0169620987521 0 0,0 0.4593460965834144,-0.4899983888548052 l 13.037867210965366 12.434827777540947" fill="#ffdb14" stroke="none" /><path d="M 84.80347519578584 85.50635884689758 l -5.660526307890992 -5.39871043552778 a28.822252389753388,28.822252389753388 0 0,0 0.3455043298604345,-0.35607258260919245 l 5.566757714327439 5.495347213687096" fill="#ff5107" stroke="none" /><path d="M 85.05521093208273 85.24692304244772 l -12.97590079102139 -12.809445626399913 a39.233373209423576,39.233373209423576 0 0,0 0.478580269282341,-0.47652509351373395 l 12.753484721571736 13.030906570563756" fill="#ffdd14" stroke="none" /><path d="M 85.31137513191541 84.99185889309783 l -8.323627523160912 -8.504688322480362 a32.900104983018245,32.900104983018245 0 0,0 0.4081442207136439,-0.392634416954279 l 8.17600005883484 8.646705826196953" fill="#ff8a0c" stroke="none" /><path d="M 85.57189188830299 84.74124197986013 l -8.828316656066352 -9.336577362549473 a33.849546755689474,33.849546755689474 0 0,0 0.4268139580011418,-0.3966770580965226 l 8.666294814270353 9.487159006720644" fill="#ff970d" stroke="none" /><path d="M 85.83668400450813 84.49514656593479 l -9.83987801300301 -10.771903023928413 a35.58962282129659,35.58962282129659 0 0,0 0.45586749973964036,-0.40928234232717253 l 9.652999525667399 10.939684375024864" fill="#ffae10" stroke="none" /><path d="M 86.10567301691215 84.25364557470407 l -10.323196772201918 -11.699214749661596 a36.6025644480739,36.6025644480739 0 0,0 0.4760184445809581,-0.4127985043769594 l 10.120284528974187 11.875178247458237" fill="#ffbb11" stroke="none" /><path d="M 86.65592168130627 83.78471172551755 l -2.1254636170276755 -2.5827939887572353 a24.344909621450014,24.344909621450014 0 0,0 0.32587006461161866,-0.26349759617196666 l 2.0806901538515565 2.6189976821933363" fill="#ff1101" stroke="none" /><path d="M 86.93701828274178 83.55741782278169 l -14.428001621050639 -18.160754370018118 a44.19440083436457,44.19440083436457 0 0,0 0.5997126420013819,-0.46808522956637905 l 14.113256423889831 18.406417988807718" fill="#e3ff1b" stroke="none" /><path d="M 87.22198572758235 83.33499621200491 l -15.771705516913338 -20.569356597906996 a46.91997541982042,46.91997541982042 0 0,0 0.6451582556207118,-0.4859198226001918 l 15.415301107534235 20.83779301001304" fill="#c3ff1e" stroke="none" /><path d="M 87.51073957382395 83.11751280151077 l -13.817298532950911 -18.677676470845316 a44.23302255622923,44.23302255622923 0 0,0 0.6160073627808599,-0.44755554662472274 l 13.49374585381627 18.912751252286707" fill="#e3ff1b" stroke="none" /><path d="M 87.80319425747018 82.90503203632743 l -4.033222748985825 -5.652940215637732 a27.944250774886456,27.944250774886456 0 0,0 0.39397249914805005,-0.2760029127769949 l 3.9353191102541145 5.721527971178669" fill="#ff4506" stroke="none" /><path d="M 88.09926311788651 82.69761687909137 l -2.338013519758738 -3.3992185577625804 a25.12565073921826,25.12565073921826 0 0,0 0.3584536672119357,-0.2420295162041945 l 2.279155158140263 3.4389599862654405" fill="#ff1c02" stroke="none" /><path d="M 88.39885842347998 82.49532879139004 l -12.198875544106983 -18.40657698260761 a43.0819981151451,43.0819981151451 0 0,0 0.6216793344756264,-0.4043575322786659 l 11.880229183847069 18.61383343904581" fill="#f1ff19" stroke="none" /><path d="M 88.70189139769569 82.29822771554957 l -20.89326345538475 -32.735372351688866 a59.834688885323025,59.834688885323025 0 0,0 0.8729620332489735,-0.5466487451348188 l 20.326682269763534 33.09016543814661" fill="#37ff2e" stroke="none" /><path d="M 89.00827224532344 82.1063720568725 l -10.398710279535997 -16.928244310929788 a40.86702370583612,40.86702370583612 0 0,0 0.602570513338545,-0.36304199207898624 l 10.105777699979802 17.10473291246739" fill="#fff216" stroke="none" /><line stroke="#e1ed5e" stroke-width="0.3" x1="56.762969772571076" x2="54.21961505331055" y1="26.818313649435495" y2="22.513508569990535" /><path d="M 56.25429882871897 25.957352633546506 a86.0,86.0 0 0,1 42.265352541879196,-11.944610805530505" fill="none" id="id24" stroke="none" /><text fill="#e1ed5e" style="font-size:6.75px; font-family:Arial;" text-anchor="middle"><textPath startOffset="22.20632615414155" xlink:href="#id24">December</textPath></text><path d="M 89.3179101791058 81.91981866633112 l -11.605959365478755 -19.643894911705843 a43.81624202394616,43.81624202394616 0 0,0 0.6526601750562244,-0.37806289969193085 l 11.26610245795721 19.840761968787824" fill="#e8ff1a" stroke="none" /><path d="M 89.63071344664047 81.73862282372117 l -8.970614672748853 -15.798172535703872 a39.16739340342486,39.16739340342486 0 0,0 0.5891445747609705,-0.32785831800118515 l 8.697346008915838 15.950246251265241" fill="#ffdd14" stroke="none" /><path d="M 89.94658935756843 81.56283822128135 l -10.644353905665808 -19.52090509069564 a43.23438790767602,43.23438790767602 0 0,0 0.6564523211752018,-0.3506540955882259 l 10.3067565379623 19.70123791278561" fill="#efff19" stroke="none" /><path d="M 90.91171255644093 81.06846463323043 l -10.941467904600707 -22.79183926418646 a46.28208173691239,46.28208173691239 0 0,0 0.7211669319395332,-0.3385975443384344 l 10.547522761361565 22.976801791164903" fill="#caff1d" stroke="none" /><path d="M 91.23893434514133 80.91482961587045 l -13.871758121626055 -30.218340748519 a54.2501697887169,54.2501697887169 0 0,0 0.8520321939301146,-0.38228200927411976 l 13.349543809229166 30.45264308830965" fill="#71ff27" stroke="none" /><path d="M 91.56875222667455 80.76684994638697 l -11.44290676855684 -26.103270695643754 a49.501243066293405,49.501243066293405 0 0,0 0.7833365276428182,-0.3353838204714802 l 10.991886483123714 26.296374044078018" fill="#a5ff21" stroke="none" /><path d="M 91.90106846888425 80.62456947434976 l -9.875532386922309 -23.62567098283168 a46.606609875463135,46.606609875463135 0 0,0 0.7428563861485235,-0.30302977192302316 l 9.467392131185406 23.79216164093828" fill="#c6ff1e" stroke="none" /><path d="M 92.23578459929587 80.48803036053334 l -1.5398661900481352 -3.8697821735259375 a25.164901193761082,25.164901193761082 0 0,0 0.4038569215912965,-0.15669021128369678 l 1.4730261034571623 3.895715088700186" fill="#ff1d02" stroke="none" /><path d="M 92.57280143429618 80.3572730644239 l -3.575075700545654 -9.455009871972797 a31.10833210493873,31.10833210493873 0 0,0 0.5024998126538964,-0.1850749217707959 l 3.4117935621191884 9.515148061549914" fill="#ff710a" stroke="none" /><path d="M 92.91201910852362 80.23233633223022 l -1.2537032557489696 -3.496451906160754 a24.714424287230894,24.714424287230894 0 0,0 0.40168941754511034,-0.14014155040302245 l 1.193331834140574 3.5175143097359864" fill="#ff1602" stroke="none" /><path d="M 93.25333710446033 80.11325718540243 l -7.149734243285274 -21.074852603490314 a43.25462001491934,43.25462001491934 0 0,0 0.7071454318332906,-0.23313473086051054 l 6.785905989209574 21.194801058610057" fill="#eeff19" stroke="none" /><path d="M 93.59665428221793 80.00007090966166 l -11.06552399485856 -34.56157218405873 a57.28977945806082,57.28977945806082 0 0,0 0.9417747553856675,-0.2926140008229276 l 10.468963866762163 34.746926319764185" fill="#51ff2b" stroke="none" /><path d="M 93.94186890950719 79.89281104454417 l -1.187584644273908 -3.9416428080414456 a25.11666191391764,25.11666191391764 0 0,0 0.41503463725061884,-0.12115999161256805 l 1.1195597892998679 3.9615011285727126" fill="#ff1c02" stroke="none" /><path d="M 94.28887869178378 79.79150937346287 l -2.2149047707164655 -7.837319482831303 a29.144285101794367,29.144285101794367 0 0,0 0.4839368443838721,-0.13227822039031753 l 2.0796700371088708 7.874284244047916" fill="#ff5607" stroke="none" /><path d="M 94.63758080256005 79.69619591428918 l -1.6238670602988843 -6.148470949322295 a27.359295499045782,27.359295499045782 0 0,0 0.45636752500744004,-0.11633824357121407 l 1.5177906466064448 6.175512189062372" fill="#ff3c05" stroke="none" /><path d="M 94.98787191387505 79.60689891045804 l -15.036384258374849 -61.17930326862588 a84.0,84.0 0 0,0 1.407105252149864,-0.3330163514365161 l 13.98105531926245 61.42906553220327" fill="#4dd2ff" stroke="none" /><path d="M 95.33964822691252 79.52364482259891 l -9.755472917074867 -42.86297217456684 a64.95911322437559,64.95911322437559 0 0,0 1.0924182603677846,-0.2387603198373323 l 9.016211932553562 43.024545992500045" fill="#35ff64" stroke="none" /><path d="M 95.692805502759 79.44645832069477 l -3.773188950011982 -18.005315617310007 a39.39642207961755,39.39642207961755 0 0,0 0.6649245396108111,-0.13337760736063034 l 3.4626980009340347 18.06759718074785" fill="#ffdf14" stroke="none" /><path d="M 96.04723909329186 79.375362276772 l -0.7831288195504309 -4.086194074232032 a25.16056159193677,25.16056159193677 0 0,0 0.42605802180399377,-0.07785938019034121 l 0.7126756766435439 4.09906893577311" fill="#ff1d02" stroke="none" /><path d="M 96.40284397218896 79.31037775812273 l -3.258590745923294 -18.74230949471945 a40.02347441571249,40.02347441571249 0 0,0 0.6797716377586749,-0.11216814473832899 l 2.9354899020257337 18.795623902397406" fill="#ffe715" stroke="none" /><path d="M 96.75951476605007 79.25152402106235 l -4.055475482271854 -25.966770268081575 a47.28155321784908,47.28155321784908 0 0,0 0.8052071468674509,-0.11866660247701591 l 3.6078993549757548 26.03273135471956" fill="#beff1e" stroke="none" /><path d="M 97.11714578562143 79.19881850522333 l -1.6468534856173662 -11.882840997915949 a32.996417656319,32.996417656319 0 0,0 0.5632728448473158,-0.07312898130007489 l 1.4420659122621926 11.90942830238016" fill="#ff8b0c" stroke="none" /><path d="M 98.19473922651362 79.07773832637324 l -2.0364187622749577 -23.60129176191909 a44.68898423754331,44.68898423754331 0 0,0 0.7669689688877437,-0.05953155319567714 l 1.6298596040248798 23.63284857730323" fill="#ddff1b" stroke="none" /><path d="M 98.55514903715128 79.0497635885617 l -1.1027894110584018 -15.99036818866932 a37.02835048575961,37.02835048575961 0 0,0 0.6362492440061833,-0.03838029191976808 l 0.8273781182125955 16.006981749969395" fill="#ffc111" stroke="none" /><path d="M 98.91598698831166 79.02799685794201 l -1.8837286784748655 -36.44380956482263 a57.4924607190467,57.4924607190467 0 0,0 0.9887585360562089,-0.04257802247141611 l 1.2561293100293325 36.47083531381824" fill="#4fff2b" stroke="none" /><path d="M 99.27714615592234 79.0124445844662 l -1.074261499699188 -31.19043073566175 a52.20892512160342,52.20892512160342 0 0,0 0.8984245211453542,-0.023203654770662194 l 0.5372103433589546 31.204301182574774" fill="#87ff25" stroke="none" /><path d="M 99.63851952072746 79.00311137660856 l -0.7677668008811888 -44.59636116252226 a65.60296957377007,65.60296957377007 0 0,0 1.1292472801537135,-0.009719787856372732 l 1.092457678419686e-14 44.60296957377007" fill="#36ff6c" stroke="none" /></svg>